<svg width="65" height="65" viewBox="0 0 65 65" fill="none" xmlns="http://www.w3.org/2000/svg">
<rect width="65" height="65" rx="5" fill="#FAC1D9"/>
<g clip-path="url(#clip0_158_11182)">
<path d="M34.6232 20.9336L45.4157 39.6261C45.5803 39.9111 45.6669 40.2345 45.6669 40.5636C45.6669 40.8927 45.5803 41.216 45.4157 41.5011C45.2512 41.7861 45.0145 42.0228 44.7295 42.1874C44.4444 42.3519 44.1211 42.4386 43.792 42.4386H22.207C21.8779 42.4386 21.5545 42.3519 21.2695 42.1874C20.9845 42.0228 20.7478 41.7861 20.5832 41.5011C20.4187 41.216 20.332 40.8927 20.332 40.5636C20.332 40.2345 20.4187 39.9111 20.5832 39.6261L31.3757 20.9336C32.097 19.6836 33.9007 19.6836 34.6232 20.9336ZM32.9995 35.7486C32.668 35.7486 32.35 35.8803 32.1156 36.1147C31.8812 36.3491 31.7495 36.6671 31.7495 36.9986C31.7495 37.3301 31.8812 37.6481 32.1156 37.8825C32.35 38.1169 32.668 38.2486 32.9995 38.2486C33.331 38.2486 33.6489 38.1169 33.8834 37.8825C34.1178 37.6481 34.2495 37.3301 34.2495 36.9986C34.2495 36.6671 34.1178 36.3491 33.8834 36.1147C33.6489 35.8803 33.331 35.7486 32.9995 35.7486ZM32.9995 26.9986C32.6933 26.9986 32.3978 27.111 32.169 27.3145C31.9402 27.5179 31.7941 27.7983 31.7582 28.1023L31.7495 28.2486V33.2486C31.7498 33.5672 31.8718 33.8736 32.0905 34.1053C32.3093 34.337 32.6082 34.4764 32.9262 34.4951C33.2443 34.5137 33.5575 34.4103 33.8018 34.2058C34.0461 34.0013 34.2031 33.7112 34.2407 33.3948L34.2495 33.2486V28.2486C34.2495 27.9171 34.1178 27.5991 33.8834 27.3647C33.6489 27.1303 33.331 26.9986 32.9995 26.9986Z" fill="#333333"/>
</g>
<defs>
<clipPath id="clip0_158_11182">
<rect width="30" height="30" fill="white" transform="translate(18 17)"/>
</clipPath>
</defs>
</svg>
