<svg width="33" height="33" viewBox="0 0 33 33" fill="none" xmlns="http://www.w3.org/2000/svg">
<path d="M14.5667 4.05V10.5167C14.5667 11.0521 14.461 11.5823 14.2556 12.0768C14.0502 12.5713 13.7491 13.0203 13.3697 13.3981C12.9903 13.776 12.5401 14.0752 12.0447 14.2786C11.5494 14.482 11.0188 14.5855 10.4834 14.5833H4.05005C3.51605 14.5866 2.98689 14.482 2.4943 14.2758C2.00171 14.0696 1.55583 13.766 1.18338 13.3833C0.805992 13.0078 0.507033 12.5609 0.303885 12.0688C0.100738 11.5767 -0.00254312 11.0491 4.75564e-05 10.5167V4.06667C3.85227e-05 2.991 0.426201 1.95915 1.18525 1.19698C1.94429 0.434805 2.97439 0.00440847 4.05005 0H10.5C11.0335 0.000512525 11.5615 0.106838 12.0536 0.31282C12.5457 0.518801 12.992 0.820348 13.3667 1.2C13.7466 1.57107 14.0485 2.01436 14.2546 2.5038C14.4606 2.99324 14.5668 3.51895 14.5667 4.05ZM32.4834 4.06667V10.5167C32.4747 11.5897 32.0458 12.6165 31.2886 13.3768C30.5314 14.1371 29.5063 14.5703 28.4334 14.5833H21.9667C20.8887 14.5767 19.8552 14.1526 19.0834 13.4C18.7062 13.0208 18.4076 12.571 18.2045 12.0762C18.0015 11.5814 17.898 11.0515 17.9 10.5167V4.06667C17.8978 3.53281 18.0028 3.00394 18.209 2.51148C18.4151 2.01902 18.7181 1.57303 19.1 1.2C19.4748 0.820348 19.9211 0.518801 20.4132 0.31282C20.9052 0.106838 21.4333 0.000512525 21.9667 0H28.4167C29.4926 0.00871179 30.5219 0.43996 31.2826 1.20073C32.0434 1.9615 32.4747 2.99081 32.4834 4.06667ZM32.4834 21.9833V28.4333C32.4747 29.5063 32.0458 30.5332 31.2886 31.2935C30.5314 32.0538 29.5063 32.487 28.4334 32.5H21.9667C20.8818 32.511 19.8355 32.0984 19.05 31.35C18.6714 30.9719 18.3718 30.5223 18.1686 30.0273C17.9655 29.5322 17.8628 29.0017 17.8667 28.4667V22.0167C17.8645 21.4828 17.9696 20.954 18.1758 20.4615C18.3819 19.9691 18.6849 19.5231 19.0667 19.15C19.4415 18.7704 19.8878 18.4689 20.3799 18.263C20.8719 18.057 21.4 17.9506 21.9334 17.95H28.3834C29.4592 17.9587 30.4885 18.39 31.2493 19.1507C32.0101 19.9115 32.4413 20.9408 32.45 22.0167L32.4834 21.9833ZM14.5667 22V28.45C14.5536 29.5258 14.1181 30.5534 13.3542 31.311C12.5904 32.0687 11.5593 32.4957 10.4834 32.5H4.05005C3.51758 32.5022 2.98994 32.399 2.49757 32.1962C2.00521 31.9935 1.55787 31.6952 1.18135 31.3187C0.804832 30.9422 0.506595 30.4948 0.303844 30.0025C0.101094 29.5101 -0.00215732 28.9825 4.75564e-05 28.45V22C0.00434123 20.9241 0.431368 19.893 1.18902 19.1291C1.94667 18.3652 2.97423 17.9298 4.05005 17.9167H10.5C11.5807 17.926 12.6152 18.3565 13.3834 19.1167C14.1435 19.8835 14.569 20.9202 14.5667 22Z" fill="#FAC1D9"/>
</svg>
