<svg width="40" height="40" viewBox="0 0 40 40" fill="none" xmlns="http://www.w3.org/2000/svg">
<path opacity="0.928" fill-rule="evenodd" clip-rule="evenodd" d="M19.6755 1.60156C19.8906 1.60156 20.1058 1.60156 20.321 1.60156C20.6204 1.91573 20.6802 2.27434 20.5003 2.6774C20.1146 2.97049 19.9711 3.353 20.0699 3.82496C20.3568 4.15966 20.6437 4.49436 20.9306 4.82907C21.4734 5.99309 21.2702 7.00916 20.321 7.87727C19.5652 8.05406 19.2425 7.75522 19.3527 6.98074C19.7618 6.64121 19.9292 6.21088 19.8548 5.68974C19.6182 5.38135 19.3552 5.09446 19.0658 4.82907C18.4143 3.58693 18.6175 2.5111 19.6755 1.60156Z" fill="#FAC1D9"/>
<path opacity="0.926" fill-rule="evenodd" clip-rule="evenodd" d="M12.9323 5.32812C13.5332 5.40568 13.7602 5.74039 13.6136 6.33224C13.3087 6.61947 13.1054 6.96613 13.004 7.37221C13.0712 7.56633 13.1668 7.74564 13.2909 7.91013C14.6045 9.13257 14.6284 10.3877 13.3626 11.6756C12.6069 11.8524 12.2841 11.5535 12.3944 10.779C12.5897 10.5598 12.757 10.3207 12.8964 10.0618C12.9618 9.77836 12.914 9.51535 12.753 9.27286C11.4069 8.02831 11.3711 6.74926 12.6454 5.43571C12.7571 5.42065 12.8527 5.38479 12.9323 5.32812Z" fill="#FAC1D9"/>
<path opacity="0.927" fill-rule="evenodd" clip-rule="evenodd" d="M26.9189 5.32812C27.5611 5.47878 27.7404 5.8613 27.4569 6.47568C27.0868 6.77315 26.9433 7.15567 27.0265 7.62324C27.3134 7.95795 27.6003 8.29265 27.8872 8.62736C28.4527 9.79607 28.2495 10.8122 27.2775 11.6756C26.7096 11.8851 26.3748 11.6938 26.2734 11.1018C26.2764 10.9607 26.3123 10.8292 26.381 10.7073C26.749 10.3782 26.8925 9.97172 26.8114 9.48802C26.5245 9.1533 26.2376 8.81864 25.9507 8.48391C25.4146 7.36434 25.5939 6.37217 26.4886 5.50743C26.64 5.44685 26.7835 5.38708 26.9189 5.32812Z" fill="#FAC1D9"/>
<path opacity="0.982" fill-rule="evenodd" clip-rule="evenodd" d="M18.5262 14.2276C19.1258 14.2039 19.7235 14.2278 20.3193 14.2993C17.8066 17.2353 16.6949 20.6301 16.9842 24.4839C17.642 25.6198 18.5624 25.8947 19.7455 25.3087C20.1305 25.0288 20.3815 24.6582 20.4986 24.197C20.5075 20.1381 22.1571 16.9584 25.4474 14.658C26.7817 14.9114 28.0847 15.2819 29.3563 15.7697C27.6173 18.3095 26.8404 21.1186 27.0253 24.197C27.58 25.5561 28.5244 25.9267 29.8584 25.3087C30.3657 24.9517 30.6406 24.4616 30.6832 23.8384C30.6363 21.5168 31.2938 19.425 32.6555 17.5627C32.7273 17.5149 32.799 17.5149 32.8707 17.5627C35.0736 19.0404 36.5917 21.0367 37.4251 23.5515C37.8842 25.467 37.7886 27.3557 37.1382 29.2176C36.3185 30.9495 34.9438 31.8699 33.0141 31.9789C24.3119 32.0268 15.6095 32.0268 6.90719 31.9789C4.47645 31.7475 2.98224 30.4446 2.42454 28.07C1.77382 24.9349 2.49105 22.1616 4.57621 19.7502C5.97205 18.2037 7.62167 17.0084 9.52506 16.1641C9.17276 16.8687 8.81415 17.5859 8.44922 18.3158C7.64788 20.1708 7.28927 22.1073 7.37339 24.1253C7.81269 25.4148 8.68532 25.8571 9.99125 25.4522C10.5731 25.1614 10.9197 24.6952 11.0312 24.0536C11.0214 20.9068 12.157 18.2651 14.438 16.1283C15.1388 15.5231 15.8799 14.9733 16.6614 14.4787C17.285 14.3491 17.9066 14.2654 18.5262 14.2276ZM7.76786 29.5045C15.8964 29.4925 24.025 29.5045 32.1535 29.5404C32.555 29.7337 32.6626 30.0325 32.4762 30.4369C32.3471 30.5672 32.1918 30.6509 32.01 30.6879C23.9771 30.7358 15.9442 30.7358 7.9113 30.6879C7.36586 30.5415 7.22242 30.2188 7.48097 29.7197C7.58148 29.6464 7.67711 29.5747 7.76786 29.5045Z" fill="#FAC1D9"/>
<path opacity="0.928" fill-rule="evenodd" clip-rule="evenodd" d="M21.8986 14.2969C22.5072 14.3017 23.1049 14.3734 23.6917 14.512C20.8089 17.0511 19.3386 20.2547 19.2808 24.1228C19.0372 24.3884 18.7383 24.4721 18.3842 24.3739C18.2246 24.2859 18.117 24.1543 18.0615 23.9794C17.9894 20.2046 19.2685 16.9771 21.8986 14.2969Z" fill="#FAC1D9"/>
<path opacity="0.927" fill-rule="evenodd" clip-rule="evenodd" d="M14.0808 14.7266C14.1543 14.755 14.1663 14.8028 14.1167 14.87C11.2712 17.3103 9.81282 20.4182 9.7416 24.1939C9.44488 24.4327 9.12213 24.4685 8.77335 24.3015C8.68718 24.2367 8.6274 24.1531 8.59404 24.0505C8.46772 20.699 9.53159 17.7942 11.7857 15.3362C12.5536 15.1085 13.3186 14.9053 14.0808 14.7266Z" fill="#FAC1D9"/>
<path opacity="0.928" fill-rule="evenodd" clip-rule="evenodd" d="M30.4331 16.2344C30.8723 16.3941 31.2786 16.6093 31.6524 16.8799C30.1586 19.0044 29.4294 21.3713 29.4649 23.9804C29.2891 24.3813 28.9903 24.5127 28.5683 24.3749C28.4402 24.3186 28.3326 24.2349 28.2456 24.1238C28.0696 22.0481 28.4283 20.0638 29.3214 18.1709C29.6574 17.4981 30.028 16.8526 30.4331 16.2344Z" fill="#FAC1D9"/>
<path opacity="0.928" fill-rule="evenodd" clip-rule="evenodd" d="M2.60445 33.2311C14.1757 33.2191 25.7469 33.2311 37.3181 33.2669C37.8586 33.6379 37.8825 34.0444 37.3898 34.4862C37.2942 34.5101 37.1985 34.534 37.1029 34.5579C25.6752 34.6058 14.2474 34.6058 2.81961 34.5579C2.26022 34.4105 2.08091 34.0639 2.2817 33.5179C2.38188 33.4053 2.48946 33.3097 2.60445 33.2311Z" fill="#FAC1D9"/>
<path opacity="0.978" fill-rule="evenodd" clip-rule="evenodd" d="M35.0232 38.3242C24.982 38.3242 14.9409 38.3242 4.89976 38.3242C3.75618 37.8556 3.27804 36.9949 3.46531 35.7422C14.4627 35.7422 25.4602 35.7422 36.4576 35.7422C36.6449 36.9949 36.1667 37.8556 35.0232 38.3242Z" fill="#FAC1D9"/>
</svg>
