<svg width="40" height="40" viewBox="0 0 40 40" fill="none" xmlns="http://www.w3.org/2000/svg">
<path opacity="0.932" fill-rule="evenodd" clip-rule="evenodd" d="M8.20434 2.39844C9.48923 2.67551 10.7628 3.00616 12.0251 3.39037C12.1564 3.44802 12.2666 3.53374 12.3558 3.64754C12.4639 4.91421 12.5007 6.18781 12.466 7.46833C12.0251 7.46833 11.5843 7.46833 11.1434 7.46833C11.1557 6.58627 11.1434 5.70455 11.1067 4.82317C10.9906 4.55009 10.7824 4.39089 10.4821 4.34557C9.64184 4.1233 8.80913 3.87838 7.98391 3.6108C7.89478 3.17929 7.96825 2.77517 8.20434 2.39844Z" fill="#FAC1D9"/>
<path opacity="0.942" fill-rule="evenodd" clip-rule="evenodd" d="M4.82485 8.64523C9.47842 8.63296 14.132 8.64523 18.7854 8.68197C18.9167 8.73965 19.0269 8.82532 19.1161 8.93913C19.2753 9.25751 19.4344 9.57596 19.5937 9.89433C14.4013 9.99228 9.20898 9.99228 4.0166 9.89433C4.19731 9.40784 4.46673 8.99145 4.82485 8.64523Z" fill="#FAC1D9"/>
<path opacity="0.945" fill-rule="evenodd" clip-rule="evenodd" d="M2.84057 11.1452C8.84119 11.133 14.8418 11.1452 20.8424 11.182C21.1715 11.4077 21.3184 11.7261 21.2832 12.1372C21.3425 12.6275 21.1466 12.9459 20.6954 13.0924C14.7683 13.1414 8.84119 13.1414 2.91404 13.0924C2.44455 12.9447 2.27311 12.6263 2.39971 12.1372C2.29414 11.6729 2.4411 11.3422 2.84057 11.1452Z" fill="#FAC1D9"/>
<path opacity="0.99" fill-rule="evenodd" clip-rule="evenodd" d="M3.64941 14.3047C9.08669 14.3047 14.524 14.3047 19.9613 14.3047C19.9103 15.0414 19.8368 15.7761 19.7408 16.509C16.4607 17.5478 14.4891 19.7521 13.8259 23.1219C13.5725 24.0262 13.7072 24.859 14.2301 25.6201C13.5247 26.5506 13.5737 27.4446 14.377 28.302C13.4953 29.4286 13.4953 30.5553 14.377 31.6819C13.7618 32.4163 13.5536 33.2612 13.7525 34.2169C13.9046 35.5132 14.4557 36.603 15.4057 37.4866C12.3441 37.5356 9.28266 37.5356 6.2211 37.4866C5.86597 37.3274 5.6088 37.0702 5.44959 36.7151C4.8252 29.2471 4.22514 21.7769 3.64941 14.3047Z" fill="#FAC1D9"/>
<path opacity="0.977" fill-rule="evenodd" clip-rule="evenodd" d="M21.5043 17.3874C24.6394 17.3751 27.7745 17.3874 30.9094 17.4242C34.3304 17.7591 36.498 19.5838 37.4121 22.8982C37.518 23.4825 37.5425 24.0703 37.4855 24.6616C37.404 24.8317 37.2693 24.9419 37.0814 24.9923C29.7785 25.0652 22.4799 25.0408 15.1853 24.9188C14.973 24.723 14.875 24.4781 14.8914 24.184C15.328 20.1839 17.5323 17.9184 21.5043 17.3874ZM23.0473 18.71C23.5228 18.6251 23.9269 18.7475 24.2597 19.0774C24.361 19.5488 24.1773 19.8304 23.7086 19.9224C23.2616 20.0221 22.882 19.9119 22.5697 19.5917C22.4625 19.1489 22.6218 18.855 23.0473 18.71ZM26.7212 20.6204C27.098 20.5919 27.4654 20.6286 27.8233 20.7306C28.1485 21.1304 28.0995 21.4733 27.6764 21.7593C27.276 21.8251 26.8842 21.8006 26.5008 21.6858C26.161 21.2369 26.2345 20.8818 26.7212 20.6204ZM20.99 21.2817C21.4154 21.252 21.8317 21.2887 22.2391 21.3919C22.5522 21.845 22.4542 22.1879 21.9452 22.4206C21.5957 22.4801 21.2527 22.4555 20.9165 22.3471C20.5126 21.9564 20.5371 21.6013 20.99 21.2817Z" fill="#FAC1D9"/>
<path opacity="0.951" fill-rule="evenodd" clip-rule="evenodd" d="M15.3322 26.2077C22.6065 26.1955 29.8807 26.2077 37.1548 26.2445C37.5343 26.5179 37.62 26.873 37.4119 27.3099C37.3077 27.3804 37.1975 27.4416 37.0813 27.4936C35.9262 27.4982 34.7751 27.5471 33.6279 27.6405C32.841 28.1075 32.1062 28.6463 31.4236 29.257C31.2032 29.404 30.9827 29.404 30.7623 29.257C30.2235 28.8162 29.6846 28.3753 29.1458 27.9344C28.868 27.7709 28.5741 27.6485 28.2641 27.567C23.978 27.5426 19.6918 27.518 15.4057 27.4936C14.747 27.1002 14.7225 26.6717 15.3322 26.2077Z" fill="#FAC1D9"/>
<path opacity="0.965" fill-rule="evenodd" clip-rule="evenodd" d="M15.8463 28.7077C19.9366 28.6955 24.0267 28.7077 28.1169 28.7445C28.2452 28.7791 28.3677 28.8281 28.4843 28.8914C29.0832 29.3989 29.6955 29.8888 30.3212 30.361C30.8355 30.7039 31.3499 30.7039 31.8642 30.361C32.5255 29.8466 33.1868 29.3323 33.8481 28.8179C34.7491 28.6999 35.6553 28.6755 36.5667 28.7445C37.2043 28.9176 37.5227 29.334 37.5219 29.9936C37.5448 30.6322 37.2509 31.0486 36.6402 31.2427C29.7089 31.2917 22.7776 31.2917 15.8463 31.2427C14.9263 30.8098 14.6936 30.1362 15.1482 29.2221C15.3341 28.9733 15.5668 28.8019 15.8463 28.7077Z" fill="#FAC1D9"/>
<path opacity="0.984" fill-rule="evenodd" clip-rule="evenodd" d="M15.4059 32.4499C22.6311 32.4376 29.8563 32.4499 37.0815 32.4867C37.2694 32.537 37.4042 32.6472 37.4856 32.8173C37.7977 34.6267 37.1976 36.0351 35.6855 37.0422C35.3156 37.2471 34.9237 37.3941 34.5098 37.4831C28.9991 37.5321 23.4883 37.5321 17.9776 37.4831C15.9796 36.9416 14.9509 35.6312 14.8915 33.5521C14.799 33.0403 14.9704 32.6729 15.4059 32.4499Z" fill="#FAC1D9"/>
</svg>
