<svg width="40" height="40" viewBox="0 0 40 40" fill="none" xmlns="http://www.w3.org/2000/svg">
<path opacity="0.985" fill-rule="evenodd" clip-rule="evenodd" d="M37.9767 15.315C37.9767 15.9718 37.9767 16.6287 37.9767 17.2855C37.8546 17.5591 37.6435 17.735 37.3433 17.8133C25.7547 17.8603 14.1663 17.8603 2.57772 17.8133C2.26533 17.7464 2.0542 17.5705 1.94434 17.2855C1.94434 16.6287 1.94434 15.9718 1.94434 15.315C2.36809 13.0955 3.42372 11.2305 5.11124 9.72012C7.44873 7.73021 10.123 6.36961 13.1341 5.63833C18.9051 4.21957 24.5586 4.59491 30.0946 6.76434C32.5285 7.76833 34.5812 9.2814 36.2525 11.3036C37.139 12.513 37.7138 13.8502 37.9767 15.315ZM19.679 7.78479C19.9636 7.74664 20.2217 7.80528 20.4531 7.96073C20.934 8.44163 21.415 8.92253 21.8958 9.40343C22.231 9.99979 22.0668 10.3751 21.4032 10.5294C21.2648 10.5265 21.1357 10.4913 21.0161 10.4239C20.4883 9.89606 19.9605 9.36824 19.4327 8.84042C19.2021 8.41749 19.2842 8.06562 19.679 7.78479ZM15.4565 9.1923C16.1569 9.23368 16.4032 9.58556 16.1954 10.2479C15.6676 10.7758 15.1398 11.3036 14.612 11.8314C14.0594 12.0949 13.684 11.9308 13.4859 11.3388C13.5371 11.2403 13.5723 11.1347 13.5915 11.0221C14.1591 10.3489 14.7807 9.73891 15.4565 9.1923ZM30.0242 10.5998C30.1658 10.651 30.3066 10.7097 30.4465 10.7758C30.9743 11.3036 31.5021 11.8314 32.0299 12.3592C32.2608 13.0905 31.991 13.4306 31.2206 13.3797C30.5755 12.8284 29.9773 12.2302 29.426 11.5851C29.3223 11.0644 29.5217 10.7359 30.0242 10.5998ZM8.20777 12.0777C8.50468 12.041 8.76271 12.1232 8.9819 12.324C9.43934 12.7815 9.89678 13.2389 10.3542 13.6963C10.7087 14.3075 10.5445 14.7062 9.8616 14.8927C9.07529 14.4119 8.39499 13.802 7.8207 13.063C7.69881 12.6276 7.82784 12.2992 8.20777 12.0777ZM25.5202 12.0777C26.201 12.0886 26.4707 12.4171 26.3295 13.063C25.8508 13.6121 25.3464 14.1399 24.8164 14.6464C24.3716 14.9912 23.9846 14.9326 23.6552 14.4705C23.5996 14.2499 23.6231 14.0388 23.7256 13.8371C24.2697 13.1873 24.8679 12.6009 25.5202 12.0777Z" fill="#FAC1D9"/>
<path opacity="0.955" fill-rule="evenodd" clip-rule="evenodd" d="M3.98572 19.1919C14.6359 19.1802 25.2861 19.1919 35.9363 19.2271C36.552 19.4619 36.7044 19.8725 36.3937 20.4587C36.267 20.5865 36.1146 20.6687 35.9363 20.705C33.5904 20.7284 31.2445 20.7519 28.8987 20.7754C27.5381 22.1359 26.1775 23.4966 24.8169 24.8571C24.5019 25.0596 24.1735 25.0831 23.8316 24.9275C21.0636 23.5434 18.2954 22.1594 15.5273 20.7754C11.6801 20.7519 7.83292 20.7284 3.98572 20.705C3.37004 20.4701 3.21755 20.0596 3.52828 19.4734C3.66993 19.3504 3.82241 19.2565 3.98572 19.1919Z" fill="#FAC1D9"/>
<path opacity="0.98" fill-rule="evenodd" clip-rule="evenodd" d="M37.9767 24.3952C37.9767 24.8175 37.9767 25.2397 37.9767 25.662C37.6244 26.8702 36.8267 27.6092 35.5839 27.8788C25.1683 27.9258 14.7527 27.9258 4.33711 27.8788C3.09425 27.6092 2.29665 26.8702 1.94434 25.662C1.94434 25.2397 1.94434 24.8175 1.94434 24.3952C2.28869 23.2183 3.06282 22.4794 4.26673 22.1784C7.36125 22.0638 10.4577 22.0403 13.5563 22.108C17.0282 23.844 20.5001 25.5799 23.9719 27.3158C24.4623 27.4826 24.9315 27.4357 25.3794 27.1751C27.0684 25.4861 28.7575 23.797 30.4465 22.108C32.0182 22.0611 33.5899 22.0611 35.1616 22.108C36.6222 22.2444 37.5605 23.0068 37.9767 24.3952Z" fill="#FAC1D9"/>
<path opacity="0.986" fill-rule="evenodd" clip-rule="evenodd" d="M37.9767 30.939C37.9767 31.3612 37.9767 31.7835 37.9767 32.2057C37.5671 33.706 36.6054 34.6561 35.0913 35.0559C30.0491 35.137 25.0055 35.1722 19.9605 35.1615C14.9155 35.1722 9.87187 35.137 4.82974 35.0559C3.31563 34.6561 2.35383 33.706 1.94434 32.2057C1.94434 31.7835 1.94434 31.3612 1.94434 30.939C2.21114 30.1444 2.75069 29.6166 3.56298 29.3555C14.4946 29.3086 25.4264 29.3086 36.358 29.3555C37.1703 29.6166 37.7099 30.1444 37.9767 30.939Z" fill="#FAC1D9"/>
</svg>
