<svg width="15" height="15" viewBox="0 0 15 15" fill="none" xmlns="http://www.w3.org/2000/svg">
<path d="M0 12.0417C0 13.2458 0.920833 14.1667 2.125 14.1667H12.0417C13.2458 14.1667 14.1667 13.2458 14.1667 12.0417V6.375H0V12.0417ZM12.0417 1.41667H10.625V0.708333C10.625 0.283333 10.3417 0 9.91667 0C9.49167 0 9.20833 0.283333 9.20833 0.708333V1.41667H4.95833V0.708333C4.95833 0.283333 4.675 0 4.25 0C3.825 0 3.54167 0.283333 3.54167 0.708333V1.41667H2.125C0.920833 1.41667 0 2.3375 0 3.54167V4.95833H14.1667V3.54167C14.1667 2.3375 13.2458 1.41667 12.0417 1.41667Z" fill="#FAC1D9"/>
</svg>
