<svg width="121" height="77" viewBox="0 0 121 77" fill="none" xmlns="http://www.w3.org/2000/svg">
<rect x="0.5" y="0.5" width="120" height="76" rx="9.5" stroke="white"/>
<g clip-path="url(#clip0_2013_21925)">
<path opacity="0.946" fill-rule="evenodd" clip-rule="evenodd" d="M71.9922 23.0393C72.9305 23.0283 73.5946 23.445 73.9844 24.2893C74.1256 24.7496 74.2168 25.2183 74.2579 25.6955C66.8168 26.7865 59.3818 27.8282 51.9532 28.8205C51.9175 28.7233 51.9566 28.6583 52.0704 28.6252C58.7179 26.7518 65.3585 24.8898 71.9922 23.0393Z" fill="white"/>
<path opacity="0.944" fill-rule="evenodd" clip-rule="evenodd" d="M75.1953 26.7077C76.4989 26.5448 77.3192 27.0917 77.6562 28.3483C77.7245 28.8818 77.7896 29.4157 77.8515 29.9499C77.8481 30.0877 77.822 30.218 77.7734 30.3405C69.0234 30.3796 60.2734 30.3926 51.5234 30.3796C51.5125 30.2527 51.5646 30.1616 51.6796 30.1062C59.5329 28.9973 67.3714 27.8645 75.1953 26.7077Z" fill="white"/>
<path opacity="0.98" fill-rule="evenodd" clip-rule="evenodd" d="M79.9609 32.8828C79.9609 39.0807 79.9609 45.2787 79.9609 51.4766C79.6681 52.2242 79.1213 52.6799 78.3203 52.8438C66.0807 52.8959 53.8412 52.8959 41.6016 52.8438C40.8006 52.6799 40.2538 52.2242 39.9609 51.4766C39.9609 45.2787 39.9609 39.0807 39.9609 32.8828C40.207 32.2593 40.6497 31.8296 41.2891 31.5938C53.737 31.5417 66.1849 31.5417 78.6328 31.5938C79.2722 31.8296 79.7149 32.2593 79.9609 32.8828ZM44.7266 34.1328C47.5913 34.1198 50.4559 34.1328 53.3203 34.1719C53.6103 34.3682 53.7014 34.6417 53.5938 34.9922C53.4907 35.1474 53.3475 35.2386 53.1641 35.2656C50.612 35.2917 48.0599 35.3178 45.5078 35.3438C45.1823 36.1901 44.5964 36.776 43.75 37.1016C43.6849 40.5133 43.6979 43.9248 43.7891 47.336C44.6395 47.6299 45.2124 48.2028 45.5078 49.0547C48.1088 49.1192 50.7129 49.1583 53.3203 49.1719C53.6103 49.3682 53.7014 49.6417 53.5938 49.9922C53.5287 50.0573 53.4635 50.1224 53.3984 50.1875C50.5646 50.3162 47.726 50.3423 44.8828 50.2656C44.6994 50.2386 44.5562 50.1474 44.4531 49.9922C44.4148 48.9122 43.8549 48.3524 42.7734 48.3125C42.7083 48.2474 42.6432 48.1823 42.5781 48.1172C42.4494 44.2666 42.4233 40.4124 42.5 36.5547C42.5351 36.397 42.6002 36.2538 42.6953 36.125C42.9752 36.0273 43.2616 35.9492 43.5547 35.8906C44.1396 35.5945 44.4391 35.1127 44.4531 34.4453C44.507 34.3008 44.5982 34.1966 44.7266 34.1328ZM58.9453 34.1328C62.9739 33.926 65.8255 35.6448 67.5 39.2891C68.7084 43.1164 67.7579 46.2805 64.6484 48.7813C61.1134 50.9636 57.728 50.7553 54.4922 48.1563C51.6904 45.2388 51.1566 41.9445 52.8906 38.2735C54.2685 35.9509 56.2867 34.5706 58.9453 34.1328ZM66.6016 34.1328C69.4662 34.1198 72.3309 34.1328 75.1953 34.1719C75.2669 34.2011 75.332 34.2402 75.3906 34.2891C75.5268 34.5592 75.6049 34.8456 75.625 35.1485C75.7079 35.3877 75.8511 35.583 76.0547 35.7344C76.4543 35.8959 76.8579 36.0392 77.2656 36.1641C77.333 36.2881 77.3851 36.4183 77.4219 36.5547C77.474 40.3047 77.474 44.0547 77.4219 47.8047C77.4167 48.0216 77.3256 48.1908 77.1484 48.3125C76.067 48.3524 75.507 48.9122 75.4688 49.9922C75.4037 50.0573 75.3385 50.1224 75.2734 50.1875C72.4396 50.3162 69.601 50.3423 66.7578 50.2656C66.3235 50.1517 66.1803 49.8783 66.3281 49.4453C66.3672 49.3021 66.4584 49.211 66.6016 49.1719C69.1797 49.1459 71.7578 49.1198 74.3359 49.0938C74.5556 48.6817 74.816 48.2911 75.1172 47.9219C75.427 47.6772 75.7655 47.4819 76.1328 47.336C76.224 43.9248 76.237 40.5133 76.1719 37.1016C75.3255 36.776 74.7396 36.1901 74.4141 35.3438C71.862 35.3178 69.3099 35.2917 66.7578 35.2656C66.28 35.0843 66.1628 34.7588 66.4062 34.2891C66.484 34.2449 66.5491 34.1928 66.6016 34.1328ZM46.9922 40.3828C48.0933 40.2363 48.8355 40.6791 49.2188 41.711C49.3428 43.3838 48.5746 44.126 46.9141 43.9375C45.6737 43.3434 45.3482 42.4189 45.9375 41.1641C46.2171 40.7915 46.5687 40.531 46.9922 40.3828ZM71.9922 40.3828C73.0933 40.2363 73.8355 40.6791 74.2188 41.711C74.3428 43.3838 73.5746 44.126 71.9141 43.9375C70.6737 43.3434 70.3482 42.4189 70.9375 41.1641C71.2171 40.7915 71.5687 40.531 71.9922 40.3828Z" fill="white"/>
<path opacity="0.969" fill-rule="evenodd" clip-rule="evenodd" d="M59.0235 35.3032C62.3828 35.087 64.8177 36.4673 66.3282 39.4438C67.5461 42.9996 66.6477 45.8772 63.6328 48.0766C60.9641 49.5493 58.36 49.4451 55.8203 47.7641C53.1831 45.5099 52.4409 42.7365 53.5938 39.4438C54.7096 37.1482 56.5195 35.768 59.0235 35.3032ZM59.7266 36.6313C59.5982 36.6951 59.5071 36.7993 59.4532 36.9438C59.3852 37.2816 59.3201 37.6202 59.2578 37.9595C58.7009 38.1652 58.2452 38.5038 57.8907 38.9751C57.379 39.9719 57.4311 40.9354 58.0469 41.8657C58.7482 42.5513 59.5946 42.9028 60.586 42.9204C60.7519 43.008 60.8951 43.1252 61.0157 43.272C61.276 43.7928 61.276 44.3136 61.0157 44.8345C60.3125 45.5636 59.6094 45.5636 58.9063 44.8345C58.7753 44.4257 58.6321 44.022 58.4766 43.6235C58.1937 43.4602 57.9203 43.4733 57.6563 43.6626C57.4217 45.0567 57.9816 45.9682 59.336 46.397C59.3184 46.7679 59.3575 47.1325 59.4532 47.4907C59.6832 47.7676 59.9567 47.8327 60.2735 47.686C60.5482 47.3036 60.6523 46.8739 60.586 46.397C61.4904 46.1566 62.0764 45.5838 62.3438 44.6782C62.5753 43.1475 61.9633 42.1449 60.5078 41.6704C59.8826 41.7068 59.3488 41.5115 58.9063 41.0845C58.5753 40.403 58.6665 39.7911 59.1797 39.2485C60.491 38.765 61.2072 39.2207 61.3282 40.6157C61.7037 41.0394 62.0422 41.0134 62.3438 40.5376C62.4304 39.257 61.8705 38.3977 60.6641 37.9595C60.6239 37.5551 60.5328 37.1645 60.3907 36.7876C60.1903 36.6564 59.9689 36.6043 59.7266 36.6313Z" fill="white"/>
<path opacity="0.884" fill-rule="evenodd" clip-rule="evenodd" d="M47.1485 41.5526C48.0376 41.4948 48.2981 41.8724 47.9297 42.6854C47.5939 42.9499 47.2684 42.9369 46.9532 42.6464C46.7517 42.2227 46.8168 41.8581 47.1485 41.5526Z" fill="white"/>
<path opacity="0.884" fill-rule="evenodd" clip-rule="evenodd" d="M72.1484 41.5526C73.0375 41.4948 73.298 41.8724 72.9296 42.6854C72.5938 42.9499 72.2683 42.9369 71.9531 42.6464C71.7516 42.2227 71.8167 41.8581 72.1484 41.5526Z" fill="white"/>
</g>
<defs>
<clipPath id="clip0_2013_21925">
<rect width="40" height="40" fill="white" transform="translate(40 18)"/>
</clipPath>
</defs>
</svg>
