<svg width="40" height="40" viewBox="0 0 40 40" fill="none" xmlns="http://www.w3.org/2000/svg">
<path opacity="0.993" fill-rule="evenodd" clip-rule="evenodd" d="M25.268 1.60156C26.1287 1.60156 26.9893 1.60156 27.85 1.60156C32.1846 2.1962 35.3284 4.4435 37.2815 8.34347C37.8088 9.54525 38.1555 10.7885 38.3215 12.073C38.3215 12.9337 38.3215 13.7944 38.3215 14.655C37.5207 19.8433 34.6279 23.2741 29.6431 24.9472C28.3348 25.2195 27.0198 25.4586 25.6983 25.6644C23.3262 26.2052 21.0789 27.0659 18.9564 28.2464C18.1343 28.4714 17.3692 28.3519 16.6613 27.8878C15.1193 26.3458 13.5772 24.8038 12.0352 23.2617C11.5712 22.5538 11.4516 21.7888 11.6766 20.9666C12.6148 19.2813 13.3559 17.5122 13.9 15.6592C14.325 13.8789 14.6836 12.0859 14.9758 10.28C16.649 5.29512 20.0797 2.40232 25.268 1.60156Z" fill="#FAC1D9"/>
<path opacity="0.98" fill-rule="evenodd" clip-rule="evenodd" d="M9.5608 38.319C9.08262 38.319 8.6045 38.319 8.12635 38.319C6.30737 37.8147 5.32717 36.6193 5.18573 34.7329C3.29933 34.5914 2.10395 33.6112 1.59961 31.7923C1.59961 31.3141 1.59961 30.836 1.59961 30.3578C2.31289 28.0635 3.86688 27.1191 6.26157 27.5248C6.85913 27.6859 7.37315 27.9847 7.8036 28.4213C9.10658 27.1183 10.4095 25.8154 11.7125 24.5124C11.7603 24.4646 11.8081 24.4646 11.8559 24.5124C13.0642 25.7088 14.2596 26.9161 15.442 28.1344C14.1401 29.4723 12.8252 30.7991 11.4973 32.115C12.4299 33.1318 12.7287 34.3152 12.3938 35.6653C11.9202 37.0596 10.9758 37.9442 9.5608 38.319Z" fill="#FAC1D9"/>
</svg>
