<svg width="42" height="42" viewBox="0 0 42 42" fill="none" xmlns="http://www.w3.org/2000/svg">
<circle cx="21" cy="21" r="21" fill="#FAC1D9"/>
<path d="M21.0003 12.6641C21.8244 12.6641 22.63 12.9084 23.3152 13.3663C24.0004 13.8241 24.5345 14.4749 24.8498 15.2362C25.1652 15.9976 25.2477 16.8354 25.0869 17.6436C24.9262 18.4519 24.5293 19.1943 23.9466 19.777C23.3639 20.3597 22.6215 20.7566 21.8132 20.9173C21.0049 21.0781 20.1672 20.9956 19.4058 20.6802C18.6445 20.3649 17.9937 19.8308 17.5359 19.1456C17.078 18.4604 16.8337 17.6548 16.8337 16.8307L16.8378 16.6499C16.8844 15.5772 17.3433 14.5639 18.1188 13.8213C18.8944 13.0787 19.9266 12.6641 21.0003 12.6641ZM22.667 22.6641C23.7721 22.6641 24.8319 23.103 25.6133 23.8845C26.3947 24.6659 26.8337 25.7257 26.8337 26.8307V27.6641C26.8337 28.1061 26.6581 28.53 26.3455 28.8426C26.0329 29.1551 25.609 29.3307 25.167 29.3307H16.8337C16.3916 29.3307 15.9677 29.1551 15.6551 28.8426C15.3426 28.53 15.167 28.1061 15.167 27.6641V26.8307C15.167 25.7257 15.606 24.6659 16.3874 23.8845C17.1688 23.103 18.2286 22.6641 19.3337 22.6641H22.667Z" fill="#333333"/>
</svg>
