<svg width="30" height="30" viewBox="0 0 30 30" fill="none" xmlns="http://www.w3.org/2000/svg">
<circle cx="14.8591" cy="14.8591" r="14.8591" fill="white"/>
<path d="M14.3301 10.12V12.7067C14.3301 12.9208 14.2878 13.1329 14.2056 13.3307C14.1235 13.5285 14.0031 13.7081 13.8513 13.8593C13.6996 14.0104 13.5194 14.1301 13.3213 14.2114C13.1232 14.2928 12.9109 14.3342 12.6968 14.3333H10.1234C9.90984 14.3346 9.69818 14.2928 9.50114 14.2103C9.3041 14.1278 9.12575 14.0064 8.97677 13.8533C8.82581 13.7031 8.70623 13.5244 8.62497 13.3275C8.54371 13.1307 8.5024 12.9196 8.50344 12.7067V10.1267C8.50343 9.6964 8.6739 9.28366 8.97752 8.97879C9.28114 8.67392 9.69317 8.50176 10.1234 8.5H12.7034C12.9168 8.50021 13.128 8.54274 13.3249 8.62513C13.5217 8.70752 13.7002 8.82814 13.8501 8.98C14.0021 9.12843 14.1228 9.30575 14.2052 9.50152C14.2877 9.6973 14.3301 9.90758 14.3301 10.12ZM21.4968 10.1267V12.7067C21.4933 13.1359 21.3217 13.5466 21.0189 13.8507C20.716 14.1548 20.306 14.3281 19.8768 14.3333H17.2901C16.8589 14.3307 16.4455 14.161 16.1368 13.86C15.9859 13.7083 15.8665 13.5284 15.7852 13.3305C15.704 13.1326 15.6626 12.9206 15.6634 12.7067V10.1267C15.6625 9.91312 15.7045 9.70158 15.787 9.50459C15.8695 9.30761 15.9907 9.12921 16.1434 8.98C16.2933 8.82814 16.4719 8.70752 16.6687 8.62513C16.8655 8.54274 17.0767 8.50021 17.2901 8.5H19.8701C20.3004 8.50348 20.7122 8.67598 21.0165 8.98029C21.3208 9.2846 21.4933 9.69633 21.4968 10.1267ZM21.4968 17.2933V19.8733C21.4933 20.3025 21.3217 20.7133 21.0189 21.0174C20.716 21.3215 20.306 21.4948 19.8768 21.5H17.2901C16.8562 21.5044 16.4376 21.3394 16.1234 21.04C15.972 20.8888 15.8521 20.7089 15.7709 20.5109C15.6896 20.3129 15.6486 20.1007 15.6501 19.8867V17.3067C15.6492 17.0931 15.6913 16.8816 15.7737 16.6846C15.8562 16.4876 15.9774 16.3092 16.1301 16.16C16.28 16.0082 16.4585 15.8876 16.6554 15.8052C16.8522 15.7228 17.0634 15.6802 17.2768 15.68H19.8568C20.2871 15.6835 20.6988 15.856 21.0031 16.1603C21.3075 16.4646 21.48 16.8763 21.4834 17.3067L21.4968 17.2933ZM14.3301 17.3V19.88C14.3249 20.3103 14.1507 20.7214 13.8451 21.0244C13.5396 21.3275 13.1271 21.4983 12.6968 21.5H10.1234C9.91045 21.5009 9.69939 21.4596 9.50245 21.3785C9.3055 21.2974 9.12656 21.1781 8.97596 21.0275C8.82535 20.8769 8.70606 20.6979 8.62496 20.501C8.54386 20.304 8.50256 20.093 8.50344 19.88V17.3C8.50515 16.8696 8.67597 16.4572 8.97903 16.1517C9.28209 15.8461 9.69311 15.6719 10.1234 15.6667H12.7034C13.1357 15.6704 13.5495 15.8426 13.8568 16.1467C14.1608 16.4534 14.331 16.8681 14.3301 17.3Z" fill="#FAC1D9"/>
</svg>
