<svg width="121" height="77" viewBox="0 0 121 77" fill="none" xmlns="http://www.w3.org/2000/svg">
<rect x="0.5" y="0.5" width="120" height="76" rx="9.5" stroke="white"/>
<path opacity="0.984" fill-rule="evenodd" clip-rule="evenodd" d="M45.0391 26.3955C54.987 26.3825 64.9349 26.3955 74.8828 26.4346C76.3197 26.7777 77.166 27.6761 77.4219 29.1299C77.4609 29.8847 77.4739 30.6399 77.4609 31.3955C65.7943 31.3955 54.1276 31.3955 42.4609 31.3955C42.4479 30.6399 42.4609 29.8847 42.5 29.1299C42.7703 27.675 43.6167 26.7635 45.0391 26.3955Z" fill="white"/>
<path opacity="0.985" fill-rule="evenodd" clip-rule="evenodd" d="M42.4609 34.5234C54.1276 34.5234 65.7943 34.5234 77.4609 34.5234C77.474 38.612 77.4609 42.7006 77.4219 46.7891C77.166 48.2428 76.3197 49.1412 74.8828 49.4844C64.9349 49.5365 54.987 49.5365 45.0391 49.4844C43.6022 49.1412 42.7559 48.2428 42.5 46.7891C42.4609 42.7006 42.4479 38.612 42.4609 34.5234ZM46.2109 37.1797C49.31 37.1666 52.409 37.1797 55.5078 37.2187C56.482 37.7195 56.6773 38.4357 56.0938 39.3672C55.9179 39.5138 55.7226 39.631 55.5078 39.7187C52.4088 39.7709 49.3099 39.7709 46.2109 39.7187C45.315 39.3488 45.0416 38.7109 45.3906 37.8047C45.6137 37.5148 45.8871 37.3065 46.2109 37.1797ZM69.4141 37.1797C70.6643 37.1666 71.9143 37.1797 73.1641 37.2187C73.3036 37.2801 73.4208 37.3712 73.5156 37.4922C73.6436 38.8132 73.6696 40.1413 73.5938 41.4766C73.5324 41.6161 73.4413 41.7333 73.3203 41.8281C72.0234 41.9549 70.7213 41.9809 69.4141 41.9062C69.2481 41.8186 69.1049 41.7014 68.9844 41.5547C68.8577 40.3099 68.8317 39.0599 68.9062 37.8047C69.006 37.5361 69.1752 37.3277 69.4141 37.1797ZM47.0703 44.9922C48.4768 44.9791 49.883 44.9922 51.2891 45.0312C51.9277 45.2833 52.097 45.713 51.7969 46.3203C51.6444 46.5073 51.4491 46.6245 51.2109 46.6719C49.8828 46.724 48.5547 46.724 47.2266 46.6719C46.4869 46.4552 46.2916 45.9995 46.6406 45.3047C46.7822 45.1893 46.9254 45.0852 47.0703 44.9922ZM54.3359 44.9922C55.7424 44.9791 57.1487 44.9922 58.5547 45.0312C59.2577 45.3935 59.3619 45.8883 58.8672 46.5156C58.7194 46.5916 58.5631 46.6437 58.3984 46.6719C57.0963 46.724 55.7943 46.724 54.4922 46.6719C53.7655 46.5075 53.5441 46.0778 53.8281 45.3828C53.9691 45.2011 54.1384 45.0709 54.3359 44.9922ZM61.6016 44.9922C62.982 44.9791 64.3622 44.9922 65.7422 45.0312C66.5603 45.4394 66.6384 45.9602 65.9766 46.5937C65.8724 46.6198 65.7682 46.6459 65.6641 46.6719C64.3359 46.724 63.0078 46.724 61.6797 46.6719C60.9366 46.4345 60.7544 45.9787 61.1328 45.3047C61.2727 45.1628 61.4289 45.0587 61.6016 44.9922ZM68.7891 44.9922C70.1955 44.9791 71.6018 44.9922 73.0078 45.0312C73.5422 45.2276 73.7375 45.6052 73.5938 46.1641C73.4478 46.4782 73.2004 46.6474 72.8516 46.6719C71.5495 46.724 70.2474 46.724 68.9453 46.6719C68.4409 46.6101 68.1805 46.3236 68.1641 45.8125C68.2116 45.4137 68.4199 45.1403 68.7891 44.9922Z" fill="white"/>
</svg>
