<svg width="40" height="40" viewBox="0 0 40 40" fill="none" xmlns="http://www.w3.org/2000/svg">
<path opacity="0.984" fill-rule="evenodd" clip-rule="evenodd" d="M8.32031 4.95801C15.2735 4.94499 22.2266 4.95801 29.1797 4.99707C31.0421 5.44001 32.1359 6.59886 32.4609 8.47363C32.2021 8.43106 31.9417 8.39199 31.6797 8.35645C23.9713 8.30434 16.263 8.30434 8.55469 8.35645C7.09411 8.44215 5.90922 9.0541 5 10.1924C4.65256 7.49792 5.75934 5.75313 8.32031 4.95801Z" fill="#333333"/>
<path opacity="0.99" fill-rule="evenodd" clip-rule="evenodd" d="M8.32031 9.95948C16.2138 9.92128 24.1044 9.96034 31.9922 10.0767C33.5721 10.6148 34.5487 11.6955 34.9219 13.3189C34.9609 14.9853 34.974 16.652 34.9609 18.3189C32.8774 18.3058 30.7941 18.3189 28.7109 18.3579C26.945 18.7437 25.9815 19.8374 25.8203 21.6392C26.0301 23.6198 27.1238 24.7135 29.1016 24.9204C31.0545 24.9595 33.0077 24.9725 34.9609 24.9595C34.974 26.6264 34.9609 28.293 34.9219 29.9595C34.4769 31.8107 33.318 32.9174 31.4453 33.2798C23.7891 33.3319 16.1328 33.3319 8.47656 33.2798C6.60457 32.9182 5.44572 31.8114 5 29.9595C4.94792 24.4126 4.94792 18.8657 5 13.3189C5.44387 11.5339 6.55063 10.4141 8.32031 9.95948ZM15.7422 14.1782C18.9534 13.9933 21.4144 15.2433 23.125 17.9282C24.6211 20.9326 24.3606 23.7711 22.3438 26.4439C19.862 29.0466 16.9323 29.7107 13.5547 28.436C10.4402 26.8312 8.99492 24.2661 9.21875 20.7407C9.8968 17.0549 12.0713 14.8674 15.7422 14.1782Z" fill="#333333"/>
<path opacity="0.949" fill-rule="evenodd" clip-rule="evenodd" d="M16.1327 15.7423C19.0382 15.7297 21.0565 17.0578 22.1874 19.7267C23.0089 23.0177 21.9282 25.4526 18.9452 27.0313C15.9315 28.0666 13.4966 27.2984 11.6405 24.7267C10.1761 21.9309 10.5537 19.4178 12.7733 17.1876C13.7583 16.378 14.8782 15.8962 16.1327 15.7423ZM16.3671 17.3048C14.9912 17.4654 13.9105 18.1165 13.1249 19.2579C12.0901 21.297 12.3895 23.1069 14.0233 24.6876C15.8396 25.9033 17.6365 25.8772 19.414 24.6095C19.8323 23.9219 19.65 23.4661 18.8671 23.2423C18.5062 23.355 18.1937 23.5503 17.9296 23.8282C16.3079 24.5246 15.0839 24.0949 14.2577 22.5392C16.2662 22.4973 18.2715 22.4321 20.2733 22.3438C20.4129 22.2825 20.5301 22.1914 20.6249 22.0704C20.7426 21.6606 20.7686 21.2439 20.703 20.8204C20.1592 18.5454 18.7139 17.3735 16.3671 17.3048Z" fill="#333333"/>
<path opacity="0.932" fill-rule="evenodd" clip-rule="evenodd" d="M16.0547 19.1047C17.4833 18.9199 18.4729 19.4798 19.0234 20.7844C17.4342 20.8495 15.8457 20.8364 14.2578 20.7453C14.5894 19.8925 15.1884 19.3456 16.0547 19.1047Z" fill="#333333"/>
<path opacity="0.972" fill-rule="evenodd" clip-rule="evenodd" d="M28.5547 19.9609C30.6901 19.9609 32.8255 19.9609 34.9609 19.9609C34.9609 21.0807 34.9609 22.2005 34.9609 23.3203C32.8514 23.3334 30.742 23.3203 28.6328 23.2812C27.5905 22.8935 27.2129 22.1513 27.5 21.0547C27.6576 20.4936 28.0091 20.1291 28.5547 19.9609ZM28.9453 20.8203C29.728 20.8352 30.0275 21.2259 29.8437 21.9922C29.5861 22.3609 29.2345 22.4781 28.7891 22.3438C28.3462 22.0694 28.229 21.6917 28.4375 21.2109C28.5785 21.0292 28.7478 20.8991 28.9453 20.8203Z" fill="#333333"/>
</svg>
