<svg width="23" height="23" viewBox="0 0 23 23" fill="none" xmlns="http://www.w3.org/2000/svg">
<path d="M11.3368 8.625L14.3747 11.6533V11.5C14.3747 10.7375 14.0718 10.0062 13.5326 9.46707C12.9934 8.9279 12.2622 8.625 11.4997 8.625H11.3368ZM7.21592 9.39167L8.70134 10.8771C8.65342 11.0783 8.62467 11.2796 8.62467 11.5C8.62467 12.2625 8.92758 12.9938 9.46674 13.5329C10.0059 14.0721 10.7372 14.375 11.4997 14.375C11.7105 14.375 11.9213 14.3463 12.1226 14.2983L13.608 15.7837C12.9659 16.1 12.2568 16.2917 11.4997 16.2917C10.2288 16.2917 9.01007 15.7868 8.11145 14.8882C7.21284 13.9896 6.70801 12.7708 6.70801 11.5C6.70801 10.7429 6.89967 10.0338 7.21592 9.39167ZM1.91634 4.09208L4.10134 6.27708L4.53259 6.70833C2.95134 7.95417 1.70551 9.58333 0.958008 11.5C2.61592 15.7071 6.70801 18.6875 11.4997 18.6875C12.9851 18.6875 14.4034 18.4 15.6972 17.8825L16.1093 18.285L18.9076 21.0833L20.1247 19.8663L3.13342 2.875M11.4997 6.70833C12.7705 6.70833 13.9893 7.21317 14.8879 8.11178C15.7865 9.01039 16.2913 10.2292 16.2913 11.5C16.2913 12.1133 16.1668 12.7075 15.9463 13.2442L18.7543 16.0521C20.1918 14.8542 21.3418 13.2825 22.0413 11.5C20.3834 7.29292 16.2913 4.3125 11.4997 4.3125C10.158 4.3125 8.87384 4.55208 7.66634 4.98333L9.74592 7.04375C10.2922 6.83292 10.8768 6.70833 11.4997 6.70833Z" fill="#A7A7A7"/>
</svg>
