<svg width="23" height="23" viewBox="0 0 23 23" fill="none" xmlns="http://www.w3.org/2000/svg">
<path d="M11.5 4.3125C6.70833 4.3125 2.61625 7.29292 0.958336 11.5C2.61625 15.7071 6.70833 18.6875 11.5 18.6875C16.2917 18.6875 20.3838 15.7071 22.0417 11.5C20.3838 7.29292 16.2917 4.3125 11.5 4.3125ZM11.5 16.2917C8.85417 16.2917 6.70833 14.1458 6.70833 11.5C6.70833 8.85417 8.85417 6.70833 11.5 6.70833C14.1458 6.70833 16.2917 8.85417 16.2917 11.5C16.2917 14.1458 14.1458 16.2917 11.5 16.2917ZM11.5 8.625C9.91875 8.625 8.625 9.91875 8.625 11.5C8.625 13.0813 9.91875 14.375 11.5 14.375C13.0813 14.375 14.375 13.0813 14.375 11.5C14.375 9.91875 13.0813 8.625 11.5 8.625Z" fill="#A7A7A7"/>
</svg>