<svg width="30" height="30" viewBox="0 0 30 30" fill="none" xmlns="http://www.w3.org/2000/svg">
<circle cx="14.8591" cy="14.8591" r="14.8591" fill="white"/>
<path opacity="0.983" fill-rule="evenodd" clip-rule="evenodd" d="M13.7969 9.48631C13.9223 9.48114 14.0473 9.48634 14.1719 9.50193C14.6557 9.71786 15.1349 9.94182 15.6094 10.1738C15.3355 11.4642 15.6584 12.5788 16.5781 13.5176C15.7183 13.9318 14.8537 14.3381 13.9844 14.7363C12.0572 13.856 10.1405 12.9602 8.23438 12.0488C10.0911 11.1932 11.9453 10.3391 13.7969 9.48631Z" fill="#FBCCE0"/>
<path opacity="0.991" fill-rule="evenodd" clip-rule="evenodd" d="M7.98438 12.4844C9.89368 13.3504 11.7999 14.2254 13.7031 15.1094C13.7344 17.4009 13.7448 19.6926 13.7344 21.9844C11.87 21.1512 10.0158 20.2918 8.17188 19.4062C8.09044 19.3457 8.03315 19.2676 8 19.1719C7.98438 16.9427 7.97917 14.7136 7.98438 12.4844Z" fill="#FBCCE0"/>
<path opacity="0.981" fill-rule="evenodd" clip-rule="evenodd" d="M18.5472 7.98128C20.0941 7.86873 21.1826 8.51456 21.8128 9.91878C22.2669 11.463 21.8346 12.687 20.5159 13.5907C19.8183 13.9777 19.0787 14.0871 18.2972 13.9188C17.0158 13.5592 16.2501 12.7259 16.0003 11.4188C15.8726 9.87113 16.5132 8.78259 17.9222 8.15315C18.1318 8.08522 18.3401 8.02793 18.5472 7.98128ZM19.8909 9.51253C20.1495 9.48773 20.2485 9.60231 20.1878 9.85628C19.8527 10.7036 19.5089 11.5473 19.1566 12.3875C19.076 12.4452 18.9874 12.4609 18.8909 12.4344C18.5221 12.0968 18.1627 11.7478 17.8128 11.3875C17.7138 11.0698 17.8232 10.9604 18.1409 11.0594C18.3862 11.3099 18.6362 11.5547 18.8909 11.7938C19.182 11.124 19.458 10.4469 19.7191 9.76253C19.7543 9.6596 19.8116 9.57627 19.8909 9.51253Z" fill="#FBCCE0"/>
<path opacity="0.99" fill-rule="evenodd" clip-rule="evenodd" d="M16.9531 13.8594C17.2448 14.0155 17.5468 14.1562 17.8594 14.2812C18.5656 14.5126 19.2739 14.5282 19.9844 14.3281C19.9896 15.9427 19.9844 17.5573 19.9688 19.1719C19.8666 19.3719 19.7052 19.5021 19.4844 19.5625C17.7294 20.3852 15.969 21.1925 14.2031 21.9844C14.1979 19.7031 14.2031 17.4218 14.2188 15.1406C15.1307 14.708 16.0421 14.2809 16.9531 13.8594Z" fill="#FBCCE0"/>
</svg>
