<svg width="17" height="20" viewBox="0 0 17 20" fill="none" xmlns="http://www.w3.org/2000/svg">
<path d="M9.81106 18.3224C9.81119 18.737 9.65458 19.1364 9.37263 19.4405C9.09067 19.7445 8.70421 19.9308 8.29071 19.9619L8.16744 19.966H6.52381C6.10915 19.9661 5.70975 19.8095 5.4057 19.5276C5.10164 19.2456 4.9154 18.8591 4.8843 18.4456L4.88019 18.3224H9.81106ZM7.34562 4.35156C8.8372 4.35154 10.2705 4.93085 11.3431 5.96731C12.4157 7.00376 13.0439 8.41632 13.095 9.90701L13.0983 10.1042V13.1975L14.5957 16.1922C14.661 16.3229 14.6937 16.4675 14.691 16.6135C14.6882 16.7596 14.6501 16.9028 14.5799 17.031C14.5097 17.1591 14.4095 17.2683 14.2879 17.3492C14.1662 17.4301 14.0268 17.4804 13.8815 17.4956L13.787 17.5006H0.904261C0.758113 17.5006 0.614133 17.4652 0.48466 17.3974C0.355187 17.3296 0.244081 17.2314 0.160863 17.1113C0.0776451 16.9912 0.0247961 16.8526 0.00684517 16.7076C-0.0111058 16.5626 0.00637659 16.4153 0.057794 16.2785L0.0955974 16.1922L1.59294 13.1975V10.1042C1.59294 8.57854 2.19902 7.11532 3.27786 6.03648C4.3567 4.95765 5.81992 4.35156 7.34562 4.35156Z" fill="white"/>
<circle cx="11.1438" cy="5.20043" r="5.20043" fill="#FAC1D9"/>
<path d="M8.7225 5.54909C8.7225 4.86759 8.83344 4.33665 9.05532 3.95628C9.27721 3.57194 9.66551 3.37977 10.2202 3.37977C10.771 3.37977 11.1573 3.57194 11.3792 3.95628C11.6011 4.33665 11.712 4.86759 11.712 5.54909C11.712 6.24248 11.6011 6.78135 11.3792 7.16568C11.1573 7.55002 10.771 7.74219 10.2202 7.74219C9.66551 7.74219 9.27721 7.55002 9.05532 7.16568C8.83344 6.78135 8.7225 6.24248 8.7225 5.54909ZM11.1771 5.54909C11.1771 5.20438 11.1533 4.91316 11.1058 4.67542C11.0622 4.43373 10.9691 4.23958 10.8264 4.09297C10.6878 3.94637 10.4857 3.87307 10.2202 3.87307C9.95079 3.87307 9.74475 3.94637 9.60211 4.09297C9.46343 4.23958 9.37032 4.43373 9.32277 4.67542C9.27919 4.91316 9.2574 5.20438 9.2574 5.54909C9.2574 5.90569 9.27919 6.20484 9.32277 6.44654C9.37032 6.68823 9.46343 6.88238 9.60211 7.02899C9.74475 7.17559 9.95079 7.24889 10.2202 7.24889C10.4857 7.24889 10.6878 7.17559 10.8264 7.02899C10.9691 6.88238 11.0622 6.68823 11.1058 6.44654C11.1533 6.20484 11.1771 5.90569 11.1771 5.54909ZM12.3119 3.93845V3.44515H13.4292V7.74219H12.8824V3.93845H12.3119Z" fill="#333333"/>
</svg>
