<svg width="36" height="36" viewBox="0 0 36 36" fill="none" xmlns="http://www.w3.org/2000/svg">
<circle cx="17.8301" cy="17.83" r="17.83" transform="rotate(90 17.8301 17.83)" fill="#FAC1D9"/>
<g clip-path="url(#clip0_2013_13609)">
<path opacity="0.97" fill-rule="evenodd" clip-rule="evenodd" d="M17.0699 8.98438C17.3949 8.98438 17.7199 8.98438 18.0449 8.98438C18.4316 9.27531 18.4549 9.59172 18.1146 9.93359C18.0798 10.437 18.0682 10.9409 18.0798 11.4453C18.2774 11.4395 18.4748 11.4453 18.6718 11.4629C18.835 11.4952 18.9569 11.5831 19.0374 11.7266C19.0886 12.5446 19.106 13.3649 19.0897 14.1875C18.0565 14.1875 17.0234 14.1875 15.9903 14.1875C15.974 13.3766 15.9914 12.568 16.0425 11.7617C16.1201 11.6081 16.2419 11.5085 16.4082 11.4629C16.6168 11.4453 16.8258 11.4395 17.035 11.4453C17.0408 10.953 17.035 10.4608 17.0176 9.96875C16.7402 9.75125 16.6822 9.48172 16.8435 9.16016C16.9119 9.08807 16.9874 9.02948 17.0699 8.98438Z" fill="#333333"/>
<path opacity="0.977" fill-rule="evenodd" clip-rule="evenodd" d="M12.3692 10.4944C13.2167 10.4885 14.064 10.4944 14.9114 10.512C15.0681 10.5764 15.1784 10.6877 15.2422 10.8459C15.2492 11.2046 15.2666 11.562 15.2944 11.9182C15.2556 12.6895 14.8841 13.2227 14.18 13.5178C14.1454 13.7392 14.1337 13.9619 14.1452 14.1858C13.797 14.1858 13.4487 14.1858 13.1005 14.1858C13.1063 13.9628 13.1005 13.7402 13.0831 13.5178C12.5376 13.2952 12.1893 12.8968 12.0384 12.3225C11.9851 11.8434 11.9735 11.3629 12.0035 10.8811C12.0622 10.6872 12.1841 10.5583 12.3692 10.4944Z" fill="#333333"/>
<path opacity="0.977" fill-rule="evenodd" clip-rule="evenodd" d="M20.2745 10.4944C21.1219 10.4885 21.9693 10.4944 22.8166 10.512C22.9805 10.5508 23.0908 10.6504 23.1475 10.8108C23.2278 11.3643 23.2162 11.9151 23.1126 12.4631C22.928 12.9718 22.5856 13.3233 22.0853 13.5178C22.0506 13.7392 22.039 13.9619 22.0505 14.1858C21.7139 14.1858 21.3772 14.1858 21.0406 14.1858C21.0521 13.9619 21.0405 13.7392 21.0058 13.5178C20.4345 13.2986 20.0805 12.8884 19.9436 12.2874C19.8918 11.8433 19.8802 11.3979 19.9088 10.9514C19.9377 10.7177 20.0596 10.5653 20.2745 10.4944Z" fill="#333333"/>
<path opacity="0.992" fill-rule="evenodd" clip-rule="evenodd" d="M11.7769 15.1741C15.6308 15.1682 19.4847 15.1741 23.3386 15.1917C23.5683 15.2712 23.7134 15.4294 23.7739 15.6663C23.7971 17.8225 23.7971 19.9788 23.7739 22.135C23.5664 22.8228 23.1195 23.0631 22.4332 22.8557C22.1208 22.6995 21.9409 22.4475 21.8934 22.0999C21.8818 21.5257 21.8702 20.9514 21.8586 20.3772C21.7349 19.9183 21.4389 19.6722 20.9705 19.6389C20.4374 19.6674 20.1298 19.9486 20.0477 20.4827C20.0517 20.9204 20.0169 21.354 19.9432 21.7835C19.5864 22.6466 18.9421 23.0275 18.0105 22.926C17.1998 22.8574 16.6832 22.4297 16.4608 21.6428C16.4749 20.9629 16.237 20.3945 15.7469 19.9377C15.152 19.5518 14.5483 19.5401 13.936 19.9026C13.5864 20.1503 13.36 20.4843 13.257 20.9045C13.218 21.3371 13.1948 21.7707 13.1873 22.2053C12.9771 22.795 12.565 23.0235 11.9511 22.8909C11.6402 22.7763 11.437 22.5595 11.3416 22.2405C11.3184 20.0256 11.3184 17.8108 11.3416 15.596C11.4381 15.3989 11.5832 15.2583 11.7769 15.1741Z" fill="#333333"/>
<path opacity="0.983" fill-rule="evenodd" clip-rule="evenodd" d="M20.9707 26.9844C18.6955 26.9844 16.4203 26.9844 14.1451 26.9844C14.0094 26.9102 13.9339 26.7929 13.9188 26.6328C13.8956 26.3633 13.8956 26.0938 13.9188 25.8242C13.945 25.6221 14.0553 25.499 14.2496 25.4551C14.8856 25.5186 15.4138 25.3135 15.8341 24.8398C15.9815 24.6281 16.0743 24.3937 16.1127 24.1367C16.1243 23.75 16.1359 23.3633 16.1475 22.9766C16.8795 23.7443 17.7675 24.0373 18.8116 23.8555C18.8138 24.6249 19.1736 25.1347 19.8912 25.3848C20.2144 25.4265 20.5395 25.4499 20.8662 25.4551C21.0193 25.4807 21.118 25.5686 21.1622 25.7188C21.1855 26.0469 21.1855 26.375 21.1622 26.7031C21.119 26.8113 21.0551 26.905 20.9707 26.9844Z" fill="#333333"/>
</g>
<defs>
<clipPath id="clip0_2013_13609">
<rect width="17.83" height="18" fill="white" transform="translate(8.66016 9)"/>
</clipPath>
</defs>
</svg>
