<svg width="30" height="30" viewBox="0 0 30 30" fill="none" xmlns="http://www.w3.org/2000/svg">
<circle cx="14.8591" cy="14.8591" r="14.8591" fill="white"/>
<path opacity="0.955" fill-rule="evenodd" clip-rule="evenodd" d="M14.8472 8C15.9362 8.01853 16.586 8.56084 16.7967 9.62693C16.8565 10.4286 16.5432 11.0317 15.857 11.4362C14.8712 11.8525 14.0624 11.6328 13.4306 10.777C13.0476 10.0617 13.085 9.36977 13.5428 8.70126C13.8871 8.29311 14.3219 8.05936 14.8472 8ZM14.8752 8.30856C14.9501 8.30856 15.0248 8.30856 15.0997 8.30856C15.0997 8.44881 15.0997 8.58906 15.0997 8.72931C15.0248 8.72931 14.9501 8.72931 14.8752 8.72931C14.8752 8.58906 14.8752 8.44881 14.8752 8.30856ZM13.9776 8.70126C14.1037 8.75204 14.2065 8.83619 14.2862 8.95372C14.2493 9.00465 14.2072 9.0514 14.16 9.09397C14.066 9.00471 13.9772 8.91121 13.8935 8.81346C13.9222 8.77555 13.9503 8.73815 13.9776 8.70126ZM15.9412 8.70126C16.0081 8.72576 16.0642 8.76784 16.1095 8.82749C16.0202 8.92144 15.9267 9.01027 15.829 9.09397C15.778 9.05709 15.7313 9.01501 15.6887 8.96774C15.7786 8.88258 15.8627 8.79376 15.9412 8.70126ZM14.8752 9.12202C14.9501 9.12202 15.0248 9.12202 15.0997 9.12202C15.095 9.29058 15.0997 9.45888 15.1137 9.62693C15.137 9.6503 15.1604 9.67368 15.1838 9.69706C15.3331 9.71106 15.4827 9.71574 15.6326 9.71108C15.6326 9.78588 15.6326 9.86068 15.6326 9.93549C15.4827 9.93083 15.3331 9.9355 15.1838 9.94951C15.0616 10.0736 14.9353 10.0782 14.8051 9.96354C14.7441 9.83835 14.7628 9.72615 14.8612 9.62693C14.8752 9.45888 14.8799 9.29058 14.8752 9.12202ZM13.4727 9.71108C13.613 9.71108 13.7532 9.71108 13.8935 9.71108C13.8935 9.78588 13.8935 9.86068 13.8935 9.93549C13.7532 9.93549 13.613 9.93549 13.4727 9.93549C13.4727 9.86068 13.4727 9.78588 13.4727 9.71108ZM16.0814 9.71108C16.2217 9.71108 16.3619 9.71108 16.5022 9.71108C16.5022 9.78588 16.5022 9.86068 16.5022 9.93549C16.3619 9.93549 16.2217 9.93549 16.0814 9.93549C16.0814 9.86068 16.0814 9.78588 16.0814 9.71108ZM14.1179 10.5245C14.1848 10.549 14.2409 10.5911 14.2862 10.6508C14.1957 10.7528 14.1022 10.851 14.0057 10.9453C13.9496 10.9079 13.9028 10.8612 13.8654 10.8051C13.9502 10.711 14.0343 10.6175 14.1179 10.5245ZM15.829 10.5245C15.9211 10.6261 16.0145 10.729 16.1095 10.8331C16.0721 10.8892 16.0253 10.936 15.9692 10.9734C15.8715 10.8897 15.778 10.8008 15.6887 10.7069C15.7308 10.6416 15.7775 10.5808 15.829 10.5245ZM14.8752 10.9173C14.9501 10.9173 15.0248 10.9173 15.0997 10.9173C15.0997 11.0575 15.0997 11.1978 15.0997 11.338C15.0248 11.338 14.9501 11.338 14.8752 11.338C14.8752 11.1978 14.8752 11.0575 14.8752 10.9173Z" fill="#FAC1D9"/>
<path opacity="0.972" fill-rule="evenodd" clip-rule="evenodd" d="M19.8124 10.4666C20.414 10.4197 20.8488 10.6628 21.1167 11.1959C21.3232 11.886 21.1128 12.4049 20.4856 12.7527C19.8631 12.9535 19.3629 12.7899 18.9849 12.2619C18.6901 11.6224 18.8163 11.0848 19.3636 10.649C19.5067 10.5631 19.6563 10.5023 19.8124 10.4666Z" fill="#FAC1D9"/>
<path opacity="0.972" fill-rule="evenodd" clip-rule="evenodd" d="M9.82586 10.5234C10.8066 10.5772 11.232 11.0914 11.1022 12.0662C10.8318 12.7321 10.3409 12.9986 9.6295 12.8657C8.89377 12.5582 8.63664 12.0206 8.85811 11.2528C9.05318 10.8355 9.37577 10.5924 9.82586 10.5234Z" fill="#FAC1D9"/>
<path opacity="0.921" fill-rule="evenodd" clip-rule="evenodd" d="M15.0434 12.7439C15.3895 12.7393 15.7354 12.7439 16.0813 12.758C16.1287 12.7973 16.1475 12.8487 16.1374 12.9122C16.5239 12.9768 16.6688 13.2012 16.5722 13.5855C16.4867 13.7502 16.3511 13.8437 16.1654 13.866C16.1701 13.9692 16.1654 14.0721 16.1514 14.1745C16.1374 14.1885 16.1234 14.2026 16.1093 14.2166C15.754 14.2353 15.3987 14.2353 15.0434 14.2166C15.0294 14.2026 15.0154 14.1885 15.0013 14.1745C14.9826 13.7164 14.9826 13.2582 15.0013 12.8C15.0214 12.7848 15.0355 12.7661 15.0434 12.7439ZM16.1654 13.0806C16.4096 13.1575 16.4891 13.3164 16.4039 13.5574C16.3423 13.6256 16.2675 13.6723 16.1795 13.6977C16.1654 13.4922 16.1608 13.2865 16.1654 13.0806Z" fill="#FAC1D9"/>
<path opacity="0.957" fill-rule="evenodd" clip-rule="evenodd" d="M9.77018 12.9639C10.4165 12.9292 10.8794 13.2003 11.1587 13.7774C11.2463 13.9766 11.2697 14.1823 11.2288 14.3945C10.9576 14.1934 10.6865 13.9924 10.4153 13.7914C10.037 13.6432 9.74245 13.7414 9.53175 14.0859C9.44838 14.3404 9.48577 14.5742 9.64395 14.7872C10.1748 15.1858 10.7031 15.5879 11.2288 15.9933C11.2561 16.0563 11.2655 16.1217 11.2569 16.1897C11.2195 16.1897 11.182 16.1897 11.1447 16.1897C11.1447 16.5544 11.1447 16.919 11.1447 17.2837C11.7525 17.279 12.3603 17.2837 12.9679 17.2977C13.01 17.3398 13.0521 17.3818 13.0942 17.4239C13.5034 18.4178 13.8961 19.4182 14.2723 20.4253C14.2758 21.0159 13.9813 21.273 13.3887 21.1967C13.2654 21.1514 13.1578 21.0812 13.0661 20.9863C12.7231 20.1629 12.3911 19.3354 12.0703 18.5039C11.2853 18.5194 10.4999 18.5194 9.71408 18.5039C9.11805 18.366 8.75807 17.9967 8.63414 17.3959C8.61543 17.6857 8.61543 17.9756 8.63414 18.2654C8.67433 18.4084 8.76315 18.5066 8.90062 18.56C9.92909 18.574 10.9576 18.5787 11.9862 18.574C11.9862 18.7703 11.9862 18.9667 11.9862 19.1631C11.8366 19.1631 11.687 19.1631 11.5374 19.1631C11.7119 20.0966 11.8989 21.027 12.0984 21.9541C12.0563 21.9588 12.0142 21.9634 11.9721 21.9681C11.9166 21.9645 11.8698 21.9458 11.8319 21.912C11.6405 20.9971 11.4582 20.0808 11.2849 19.1631C11.0597 19.1538 10.8353 19.1631 10.6117 19.1911C10.8059 20.1153 10.9929 21.041 11.1727 21.9681C11.0886 21.9681 11.0044 21.9681 10.9203 21.9681C10.7376 21.041 10.5459 20.1153 10.3452 19.1911C10.25 19.1643 10.1518 19.1549 10.0507 19.1631C9.87742 20.0808 9.69509 20.9971 9.5037 21.912C9.46576 21.9458 9.41901 21.9645 9.36345 21.9681C9.32137 21.9634 9.2793 21.9588 9.23722 21.9541C9.43667 21.027 9.62367 20.0966 9.79823 19.1631C9.53643 19.1631 9.27462 19.1631 9.01282 19.1631C8.82223 20.0973 8.63522 21.0323 8.45181 21.9681C8.36564 21.977 8.28149 21.9677 8.19935 21.9401C8.40339 21.018 8.6091 20.097 8.81646 19.1771C8.62802 19.1708 8.44102 19.1521 8.25545 19.121C8.14352 19.0652 8.07339 18.9763 8.04508 18.8545C8.03105 17.826 8.02638 16.7975 8.03105 15.7689C8.2274 15.7689 8.42376 15.7689 8.62011 15.7689C8.61544 15.2078 8.62011 14.6468 8.63414 14.0859C8.76862 13.4605 9.14731 13.0865 9.77018 12.9639Z" fill="#FAC1D9"/>
<path opacity="0.972" fill-rule="evenodd" clip-rule="evenodd" d="M19.7841 12.9902C20.5238 12.9367 21.0241 13.2546 21.2848 13.9439C21.3168 14.5458 21.3308 15.1489 21.3269 15.7531C21.3308 16.3573 21.3168 16.9604 21.2848 17.5624C21.0824 18.1667 20.6616 18.4846 20.0226 18.5161C19.3075 18.4857 18.5922 18.481 17.8767 18.5021C17.5676 19.3027 17.2544 20.1021 16.937 20.9004C16.746 21.1637 16.4888 21.2618 16.1656 21.1949C15.8142 21.0581 15.66 20.801 15.7028 20.4235C16.075 19.4376 16.4584 18.4559 16.8528 17.4782C16.9054 17.4163 16.9662 17.3649 17.0352 17.324C17.6335 17.3099 18.2319 17.3052 18.8304 17.3099C18.8304 16.9546 18.8304 16.5993 18.8304 16.244C18.7803 16.252 18.7335 16.2427 18.6902 16.216C19.2307 16.0229 19.6936 15.7143 20.0787 15.2903C20.3489 14.9478 20.5219 14.5597 20.5976 14.1262C20.5483 13.7497 20.338 13.53 19.9665 13.467C19.5745 13.5223 19.3501 13.7467 19.2932 14.1402C19.1551 14.4139 18.9541 14.6289 18.6902 14.7854C18.6682 14.7509 18.6542 14.7135 18.6481 14.6732C17.7322 14.9102 16.9608 14.6718 16.3339 13.9579C16.6837 13.764 16.7865 13.4834 16.6425 13.1164C16.7365 13.1103 16.8207 13.1384 16.8949 13.2005C17.4361 13.9109 18.0906 14.0419 18.8585 13.5932C19.0957 13.2785 19.4042 13.0775 19.7841 12.9902Z" fill="#FAC1D9"/>
<path opacity="0.956" fill-rule="evenodd" clip-rule="evenodd" d="M19.8124 13.6641C20.3063 13.6675 20.4886 13.9107 20.3594 14.3934C20.1192 15.0918 19.6564 15.5827 18.9709 15.866C18.3045 16.134 17.6126 16.2462 16.8952 16.2026C16.5416 16.1268 16.4247 15.9164 16.5445 15.5715C16.6041 15.4645 16.6929 15.3944 16.811 15.3611C17.5845 15.3781 18.3138 15.2098 18.9989 14.8562C19.3448 14.6275 19.5271 14.3049 19.5459 13.8885C19.6065 13.7761 19.6954 13.7013 19.8124 13.6641Z" fill="#FAC1D9"/>
<path opacity="0.953" fill-rule="evenodd" clip-rule="evenodd" d="M10.0222 13.9157C10.1281 13.909 10.2309 13.923 10.3308 13.9577C10.8047 14.3289 11.2862 14.6889 11.7754 15.0377C12.1041 14.885 12.4266 14.7214 12.7431 14.5468C12.9938 14.4504 13.1948 14.5112 13.3462 14.7291C13.4319 14.9766 13.3712 15.1777 13.1639 15.3322C12.7279 15.5642 12.2885 15.7886 11.8455 16.0054C11.6929 16.0384 11.5526 16.0103 11.4247 15.9213C10.8871 15.5145 10.3495 15.1078 9.81183 14.7011C9.59433 14.3582 9.66446 14.0964 10.0222 13.9157Z" fill="#FAC1D9"/>
<path opacity="0.935" fill-rule="evenodd" clip-rule="evenodd" d="M13.5847 14.1985C13.9414 14.1897 14.2967 14.1991 14.6506 14.2266C14.688 14.7034 14.688 15.1803 14.6506 15.6571C14.306 15.6893 13.96 15.694 13.6128 15.6712C13.5871 15.6607 13.5637 15.6467 13.5426 15.6291C13.5444 15.5034 13.521 15.3865 13.4725 15.2785C13.5309 15.1739 13.5683 15.0617 13.5847 14.9419C13.5487 14.8086 13.5254 14.673 13.5146 14.5351C13.4852 14.5637 13.4524 14.5683 13.4164 14.5491C13.3045 14.4204 13.3419 14.3596 13.5286 14.3668C13.5217 14.3007 13.5404 14.2446 13.5847 14.1985Z" fill="#FAC1D9"/>
<path opacity="0.912" fill-rule="evenodd" clip-rule="evenodd" d="M21.3552 15.7656C21.5703 15.7656 21.7853 15.7656 22.0004 15.7656C22.0135 16.814 21.9995 17.8612 21.9583 18.9073C21.9069 18.9961 21.8368 19.0662 21.7479 19.1177C21.5724 19.1546 21.3947 19.1686 21.215 19.1597C21.3948 20.0868 21.5818 21.0125 21.776 21.9367C21.6938 21.9643 21.6097 21.9737 21.5235 21.9648C21.3401 21.029 21.1531 20.094 20.9625 19.1597C20.7007 19.1597 20.4389 19.1597 20.1771 19.1597C20.3517 20.0933 20.5387 21.0237 20.7381 21.9508C20.696 21.9554 20.654 21.9601 20.6119 21.9648C20.5563 21.9612 20.5096 21.9425 20.4716 21.9087C20.2802 20.9938 20.0979 20.0775 19.9246 19.1597C19.8235 19.1516 19.7253 19.161 19.6301 19.1878C19.4294 20.112 19.2377 21.0376 19.0551 21.9648C18.9709 21.9648 18.8868 21.9648 18.8026 21.9648C18.9824 21.0377 19.1694 20.112 19.3636 19.1878C19.14 19.1598 18.9156 19.1505 18.6904 19.1597C18.5172 20.0775 18.3348 20.9938 18.1434 21.9087C18.1055 21.9425 18.0587 21.9612 18.0032 21.9648C17.9611 21.9601 17.919 21.9554 17.877 21.9508C18.0764 21.0236 18.2634 20.0932 18.438 19.1597C18.2884 19.1597 18.1387 19.1597 17.9892 19.1597C17.9892 18.9727 17.9892 18.7857 17.9892 18.5987C19.0177 18.6034 20.0462 18.5987 21.0747 18.5847C21.2129 18.5306 21.3018 18.4325 21.3412 18.2902C21.3552 17.4487 21.3599 16.6072 21.3552 15.7656Z" fill="#FAC1D9"/>
<path opacity="0.959" fill-rule="evenodd" clip-rule="evenodd" d="M11.3408 16.4141C13.7719 16.4141 16.2029 16.4141 18.634 16.4141C18.634 16.6478 18.634 16.8816 18.634 17.1153C16.2029 17.1153 13.7719 17.1153 11.3408 17.1153C11.3408 16.8816 11.3408 16.6478 11.3408 16.4141Z" fill="#FAC1D9"/>
<path opacity="0.958" fill-rule="evenodd" clip-rule="evenodd" d="M14.7629 17.3125C14.9125 17.3125 15.0621 17.3125 15.2117 17.3125C15.2117 18.6215 15.2117 19.9305 15.2117 21.2396C15.6038 21.2712 15.9871 21.346 16.3618 21.464C16.3618 21.6323 16.3618 21.8006 16.3618 21.9689C15.4454 21.9689 14.5291 21.9689 13.6128 21.9689C13.6036 21.7995 13.6129 21.6312 13.6409 21.464C14.0028 21.3289 14.3768 21.254 14.7629 21.2396C14.7629 19.9305 14.7629 18.6215 14.7629 17.3125Z" fill="#FAC1D9"/>
</svg>
