<svg width="42" height="42" viewBox="0 0 42 42" fill="none" xmlns="http://www.w3.org/2000/svg">
<circle cx="21" cy="21" r="21" fill="#FAC1D9"/>
<path d="M22.6668 14.3359H19.3335C16.191 14.3359 14.6193 14.3359 13.6435 15.3126C12.9401 16.0151 12.7435 17.0268 12.6885 18.7109H29.3118C29.2568 17.0268 29.0601 16.0151 28.3568 15.3126C27.381 14.3359 25.8093 14.3359 22.6668 14.3359Z" fill="#333333"/>
<path fill-rule="evenodd" clip-rule="evenodd" d="M22.667 27.6693H19.3337C16.1912 27.6693 14.6195 27.6693 13.6437 26.6926C12.667 25.7168 12.667 24.1451 12.667 21.0026C12.667 20.6343 12.667 20.2876 12.6687 19.9609H29.332C29.3337 20.2876 29.3337 20.6343 29.3337 21.0026C29.3337 24.1451 29.3337 25.7168 28.357 26.6926C27.3812 27.6693 25.8095 27.6693 22.667 27.6693ZM24.3712 21.2109C24.732 21.2109 25.0628 21.2109 25.3312 21.2468C25.6278 21.2868 25.9403 21.3801 26.1978 21.6384C26.4562 21.8959 26.5495 22.2084 26.5895 22.5051C26.6253 22.7743 26.6253 23.1051 26.6253 23.4651V23.5401C26.6253 23.9009 26.6253 24.2318 26.5895 24.5001C26.5495 24.7968 26.4562 25.1093 26.1978 25.3668C25.9403 25.6251 25.6278 25.7184 25.3312 25.7584C25.062 25.7943 24.7312 25.7943 24.3712 25.7943H24.2962C23.9353 25.7943 23.6045 25.7943 23.3362 25.7584C23.0395 25.7184 22.727 25.6251 22.4695 25.3668C22.2112 25.1093 22.1178 24.7968 22.0778 24.5001C22.042 24.2309 22.042 23.9001 22.042 23.5401V23.4651C22.042 23.1043 22.042 22.7734 22.0778 22.5051C22.1178 22.2084 22.2112 21.8959 22.4695 21.6384C22.727 21.3801 23.0395 21.2868 23.3362 21.2468C23.6053 21.2109 23.9362 21.2109 24.2962 21.2109H24.3712ZM15.3753 22.2526C15.3753 22.0868 15.4412 21.9279 15.5584 21.8107C15.6756 21.6935 15.8346 21.6276 16.0003 21.6276H17.667C17.8328 21.6276 17.9917 21.6935 18.1089 21.8107C18.2261 21.9279 18.292 22.0868 18.292 22.2526C18.292 22.4184 18.2261 22.5773 18.1089 22.6945C17.9917 22.8118 17.8328 22.8776 17.667 22.8776H16.0003C15.8346 22.8776 15.6756 22.8118 15.5584 22.6945C15.4412 22.5773 15.3753 22.4184 15.3753 22.2526ZM15.3753 24.7526C15.3753 24.5868 15.4412 24.4279 15.5584 24.3107C15.6756 24.1935 15.8346 24.1276 16.0003 24.1276H19.3337C19.4994 24.1276 19.6584 24.1935 19.7756 24.3107C19.8928 24.4279 19.9587 24.5868 19.9587 24.7526C19.9587 24.9184 19.8928 25.0773 19.7756 25.1945C19.6584 25.3118 19.4994 25.3776 19.3337 25.3776H16.0003C15.8346 25.3776 15.6756 25.3118 15.5584 25.1945C15.4412 25.0773 15.3753 24.9184 15.3753 24.7526Z" fill="#333333"/>
<path d="M23.3528 22.5218L23.3553 22.5209C23.4028 22.5029 23.4523 22.4912 23.5028 22.4859C23.6778 22.4626 23.9228 22.4609 24.3337 22.4609C24.7445 22.4609 24.9895 22.4626 25.1645 22.4859C25.215 22.4912 25.2646 22.5029 25.312 22.5209L25.3145 22.5218L25.3153 22.5243C25.3333 22.5717 25.3451 22.6213 25.3503 22.6718C25.3737 22.8468 25.3753 23.0918 25.3753 23.5026C25.3753 23.9134 25.3737 24.1584 25.3503 24.3334C25.3451 24.3839 25.3333 24.4335 25.3153 24.4809L25.3145 24.4834L25.312 24.4843C25.2646 24.5023 25.215 24.5141 25.1645 24.5193C24.9895 24.5426 24.7445 24.5443 24.3337 24.5443C23.9228 24.5443 23.6778 24.5426 23.5028 24.5193C23.4523 24.5141 23.4028 24.5023 23.3553 24.4843L23.3528 24.4834L23.352 24.4809C23.334 24.4335 23.3222 24.3839 23.317 24.3334C23.2937 24.1584 23.292 23.9134 23.292 23.5026C23.292 23.0918 23.2937 22.8468 23.317 22.6718C23.3222 22.6213 23.334 22.5717 23.352 22.5243L23.3528 22.5218Z" fill="#333333"/>
</svg>
