<svg width="40" height="40" viewBox="0 0 40 40" fill="none" xmlns="http://www.w3.org/2000/svg">
<path opacity="0.962" fill-rule="evenodd" clip-rule="evenodd" d="M21.8408 1.45312C22.2022 1.45312 22.5636 1.45312 22.925 1.45312C28.6555 2.17282 33.0887 4.94355 36.2246 9.76534C35.4862 10.2493 34.7273 10.7071 33.9477 11.1387C31.1162 6.76396 27.0806 4.4028 21.8408 4.05521C21.8408 3.18785 21.8408 2.32049 21.8408 1.45312Z" fill="#FAC1D9"/>
<path opacity="0.96" fill-rule="evenodd" clip-rule="evenodd" d="M18.8778 3.33594C19.0464 3.33594 19.2151 3.33594 19.3837 3.33594C19.3837 4.22739 19.3837 5.11885 19.3837 6.0103C14.1777 6.32343 10.1541 8.64844 7.31296 12.9853C7.24068 13.0335 7.1684 13.0335 7.09612 12.9853C6.38319 12.5689 5.68449 12.1352 5 11.6843C8.26457 6.66578 12.8905 3.883 18.8778 3.33594Z" fill="#FAC1D9"/>
<path opacity="0.958" fill-rule="evenodd" clip-rule="evenodd" d="M21.8413 4.71094C26.8236 5.05637 30.6786 7.29706 33.4061 11.433C29.5836 13.7 25.7407 15.9407 21.8775 18.155C21.8413 13.6737 21.8292 9.19238 21.8413 4.71094ZM23.3592 5.79514C23.5649 5.76117 23.7335 5.82141 23.8652 5.97584C23.6423 6.3764 23.305 6.54505 22.8532 6.4818C22.7797 6.40594 22.7677 6.32162 22.8171 6.22882C22.9699 6.03939 23.1506 5.89483 23.3592 5.79514ZM25.3108 6.73478C26.2495 6.69705 26.6229 7.13073 26.4311 8.03582C26.0712 8.57724 25.6014 8.68566 25.0216 8.36108C24.4902 7.70556 24.5866 7.16346 25.3108 6.73478ZM23.8652 9.33686C24.5837 9.33831 25.2221 9.55515 25.7806 9.98739C25.7623 10.4029 25.5335 10.6197 25.0939 10.6379C24.6589 10.4166 24.2011 10.26 23.7206 10.1681C23.4047 10.0251 23.3566 9.82035 23.576 9.55371C23.6773 9.47991 23.7737 9.40763 23.8652 9.33686ZM28.3465 9.48143C28.97 9.51453 29.3314 9.83979 29.4307 10.4572C29.2826 11.1212 28.8729 11.4104 28.202 11.3246C27.626 11.0427 27.4453 10.597 27.6599 9.98739C27.8427 9.74272 28.0716 9.57409 28.3465 9.48143ZM30.7318 10.5656C30.831 10.5543 30.9274 10.5663 31.0209 10.6018C30.7573 10.786 30.4682 10.8824 30.1535 10.8909C30.3414 10.7611 30.5342 10.6527 30.7318 10.5656ZM23.7929 11.9389C24.8094 11.8838 25.4118 12.3536 25.5999 13.3484C25.3224 14.5472 24.5996 14.9568 23.4315 14.5772C22.6119 13.9245 22.5155 13.1775 23.1424 12.3365C23.3421 12.1649 23.5589 12.0323 23.7929 11.9389ZM26.8286 11.9389C26.9455 11.9778 27.066 12.0019 27.19 12.0112C27.1207 12.4297 26.8678 12.6706 26.4311 12.734C26.0931 12.6734 26.0329 12.5168 26.2504 12.2642C26.4383 12.1345 26.631 12.026 26.8286 11.9389Z" fill="#FAC1D9"/>
<path opacity="0.96" fill-rule="evenodd" clip-rule="evenodd" d="M18.4435 6.66406C18.7567 6.66406 19.07 6.66406 19.3832 6.66406C19.3832 11.1214 19.3832 15.5786 19.3832 20.0359C15.4856 17.8943 11.6307 15.6778 7.81836 13.3861C10.3209 9.51978 13.8626 7.27911 18.4435 6.66406ZM16.9979 8.61563C17.8146 8.77847 18.0916 9.26036 17.8292 10.0612C17.3022 10.6387 16.7721 10.6387 16.239 10.0612C15.9807 9.30062 16.2336 8.8188 16.9979 8.61563ZM11.9383 10.9286C13.0908 10.8885 13.6569 11.4426 13.6369 12.591C13.2397 13.6955 12.5049 13.9967 11.4324 13.4945C10.6614 12.7235 10.6614 11.9526 11.4324 11.1816C11.6076 11.0939 11.7763 11.0096 11.9383 10.9286ZM16.0583 11.6514C16.7249 11.6061 17.267 11.8471 17.6846 12.3742C17.7283 12.6697 17.5957 12.8504 17.2871 12.9163C17.0943 12.9645 16.9016 12.9645 16.7088 12.9163C16.4444 12.6404 16.1312 12.4356 15.7692 12.3019C15.6874 12.1881 15.6754 12.0677 15.733 11.9405C15.834 11.827 15.9424 11.7306 16.0583 11.6514ZM16.4197 14.5426C17.3888 14.6494 17.6899 15.1554 17.3232 16.0605C16.7933 16.5625 16.2873 16.5385 15.8053 15.9882C15.5186 15.2857 15.7233 14.8038 16.4197 14.5426Z" fill="#FAC1D9"/>
<path opacity="0.965" fill-rule="evenodd" clip-rule="evenodd" d="M4.34966 12.8047C5.1462 13.2031 5.91719 13.6488 6.66263 14.1419C4.63156 18.2738 4.47496 22.4781 6.19281 26.7548C6.38838 27.1579 6.59317 27.5555 6.80719 27.9474C6.08421 28.4295 5.33731 28.8752 4.56651 29.2846C4.33256 29.0345 4.15186 28.7454 4.0244 28.4172C2.07292 23.9652 1.88018 19.4356 3.44616 14.8285C3.72678 14.1427 4.02794 13.4681 4.34966 12.8047Z" fill="#FAC1D9"/>
<path opacity="0.965" fill-rule="evenodd" clip-rule="evenodd" d="M35.4302 12.8056C35.5021 12.7994 35.5624 12.8236 35.6109 12.8779C37.6422 16.977 38.0759 21.2415 36.9119 25.6715C36.5747 26.8759 36.1169 28.0324 35.5386 29.141C35.4888 29.2029 35.4286 29.251 35.3579 29.2855C34.5871 28.8762 33.8402 28.4304 33.1172 27.9483C35.203 23.9665 35.48 19.8585 33.9484 15.6246C33.7472 15.1172 33.5183 14.6232 33.2617 14.1428C33.997 13.707 34.7198 13.2612 35.4302 12.8056Z" fill="#FAC1D9"/>
<path opacity="0.962" fill-rule="evenodd" clip-rule="evenodd" d="M7.16836 14.4688C11.0312 16.6774 14.8861 18.9061 18.7332 21.1547C14.9505 23.3351 11.1678 25.5155 7.3852 27.696C5.39666 23.8947 5.11958 19.9674 6.55398 15.9144C6.73975 15.4226 6.94455 14.9407 7.16836 14.4688ZM8.32485 16.4926C9.37052 16.5381 9.69578 17.044 9.30063 18.0105C8.92571 18.3987 8.50406 18.4589 8.03573 18.1912C7.70418 17.8856 7.59576 17.5122 7.71047 17.0708C7.86036 16.8123 8.06516 16.6195 8.32485 16.4926ZM9.98729 20.0343C11.1415 20.2374 11.5872 20.9119 11.3245 22.0582C10.5924 23.1085 9.7732 23.1807 8.86695 22.275C8.39418 21.1003 8.76763 20.3534 9.98729 20.0343ZM14.1073 20.0343C15.0692 20.2595 15.3101 20.8016 14.8301 21.6606C14.3305 22.0214 13.8607 21.9852 13.4206 21.5522C13.0716 20.7794 13.3004 20.2734 14.1073 20.0343ZM7.0238 20.1066C7.63768 20.0643 7.68587 20.1969 7.16836 20.5041C6.95929 20.5872 6.74245 20.6233 6.51784 20.6126C6.50201 20.5276 6.5261 20.4554 6.59012 20.3957C6.73941 20.2976 6.88397 20.2013 7.0238 20.1066ZM9.11993 23.8652C9.72007 23.9193 9.76828 24.1 9.26449 24.4073C8.81498 24.6133 8.34519 24.7458 7.85503 24.8048C7.33807 24.7146 7.32603 24.558 7.81889 24.335C8.26795 24.1976 8.70163 24.041 9.11993 23.8652Z" fill="#FAC1D9"/>
<path opacity="0.961" fill-rule="evenodd" clip-rule="evenodd" d="M32.6109 14.4688C32.8422 14.712 33.0229 15.0012 33.153 15.3361C34.6171 18.9892 34.6411 22.6514 33.2253 26.3227C33.0346 26.8006 32.8057 27.2584 32.5387 27.696C28.756 25.5155 24.9733 23.3351 21.1907 21.1547C25.0097 18.9359 28.8164 16.7073 32.6109 14.4688ZM32.0327 16.854C32.6778 16.8855 32.6778 17.018 32.0327 17.2515C31.8591 17.3104 31.6904 17.2983 31.5267 17.2154C31.6848 17.0765 31.8534 16.9561 32.0327 16.854ZM31.0931 19.0224C32.2424 18.9876 32.8086 19.5418 32.7916 20.6848C32.4702 21.6708 31.8076 22.0202 30.8039 21.7329C30.0597 21.2835 29.8309 20.645 30.1173 19.8175C30.3495 19.4277 30.6748 19.1627 31.0931 19.0224ZM25.9612 20.1789C26.8999 20.1411 27.2733 20.5748 27.0815 21.4799C26.8173 21.9548 26.4198 22.1114 25.8889 21.9497C25.3024 21.608 25.1699 21.1382 25.4913 20.5403C25.6334 20.3921 25.79 20.2716 25.9612 20.1789ZM28.6355 20.1789C28.7348 20.1675 28.8312 20.1796 28.9246 20.215C28.6709 20.4281 28.3818 20.5245 28.0573 20.5041C28.2518 20.3881 28.4446 20.2797 28.6355 20.1789ZM28.7801 22.5641C29.2129 22.6 29.261 22.7567 28.9246 23.0339C28.6566 23.188 28.3675 23.2483 28.0573 23.2146C28.0496 23.041 28.1218 22.9085 28.2741 22.8171C28.4341 22.7003 28.6028 22.6159 28.7801 22.5641ZM30.8039 23.7929C31.6529 23.9312 31.9541 24.4131 31.7074 25.2385C31.1743 25.816 30.6443 25.816 30.1173 25.2385C29.8654 24.5139 30.0942 24.032 30.8039 23.7929Z" fill="#FAC1D9"/>
<path opacity="0.959" fill-rule="evenodd" clip-rule="evenodd" d="M19.2396 22.2031C19.3838 26.5151 19.432 30.8519 19.3841 35.2135C14.541 34.9134 10.7583 32.7812 8.03613 28.8168C8.09685 28.689 8.19323 28.5926 8.32525 28.5276C11.9915 26.4541 15.6297 24.3459 19.2396 22.2031ZM16.8543 25.7449C17.6991 25.7823 18.0484 26.216 17.9024 27.0459C17.5591 27.6334 17.0893 27.7659 16.4929 27.4434C15.9247 26.721 16.0451 26.1548 16.8543 25.7449ZM14.3245 28.0578C14.5339 28.0307 14.7266 28.0669 14.9027 28.1662C14.6602 28.5887 14.2988 28.7573 13.8185 28.6722C13.7498 28.6203 13.7378 28.5601 13.7824 28.4915C13.9352 28.302 14.1159 28.1575 14.3245 28.0578ZM10.7105 28.2024C11.7526 28.1951 12.1019 28.677 11.7586 29.648C11.2526 30.2262 10.7466 30.2262 10.2407 29.648C9.94223 29.0134 10.0989 28.5315 10.7105 28.2024ZM14.975 29.2866C16.0427 29.3783 16.5608 29.9565 16.529 31.0213C16.1326 32.0532 15.4219 32.3544 14.3968 31.9248C13.6949 31.3584 13.5625 30.6718 13.9992 29.8648C14.2809 29.5859 14.6062 29.3932 14.975 29.2866ZM17.5771 33.5511C17.7631 33.5257 17.9317 33.5618 18.0831 33.6595C17.7791 34.0305 17.4177 34.139 16.9989 33.9848C17.1705 33.8036 17.3632 33.659 17.5771 33.5511Z" fill="#FAC1D9"/>
<path opacity="0.962" fill-rule="evenodd" clip-rule="evenodd" d="M20.54 22.2031C24.2223 24.3096 27.9086 26.4178 31.5989 28.5276C31.731 28.5926 31.8273 28.689 31.888 28.8168C29.1658 32.7812 25.3832 34.9134 20.54 35.2135C20.54 30.8767 20.54 26.5399 20.54 22.2031ZM22.9976 26.2508C24.4581 26.306 24.9762 27.0288 24.5516 28.4192C23.8229 29.2231 23.052 29.2713 22.2386 28.5638C21.6903 27.5223 21.9433 26.7514 22.9976 26.2508ZM28.2017 28.3469C28.8759 28.2977 29.2854 28.5989 29.4305 29.2504C29.2509 30.0869 28.7691 30.3519 27.9849 30.0455C27.3582 29.3848 27.4305 28.8186 28.2017 28.3469ZM25.5274 30.8045C25.6034 30.7937 25.6757 30.8057 25.7442 30.8406C25.4315 31.0459 25.0941 31.1664 24.7323 31.202C24.9845 31.0277 25.2496 30.8952 25.5274 30.8045ZM22.4916 31.2381C23.4477 31.3125 23.7729 31.7944 23.4674 32.6837C23.0927 33.1458 22.647 33.23 22.1302 32.9367C21.562 32.2143 21.6824 31.6481 22.4916 31.2381Z" fill="#FAC1D9"/>
<path opacity="0.961" fill-rule="evenodd" clip-rule="evenodd" d="M19.3837 38.4667C18.9982 38.4667 18.6127 38.4667 18.2272 38.4667C12.6112 37.7683 8.25034 35.0698 5.14453 30.3714C5.84324 29.9498 6.54194 29.5281 7.24065 29.1065C7.31293 29.0583 7.38521 29.0583 7.45749 29.1065C10.3298 33.2662 14.3052 35.5189 19.3837 35.8647C19.3837 36.732 19.3837 37.5994 19.3837 38.4667Z" fill="#FAC1D9"/>
<path opacity="0.961" fill-rule="evenodd" clip-rule="evenodd" d="M21.6966 38.4667C21.3112 38.4667 20.9256 38.4667 20.5402 38.4667C20.5402 37.5994 20.5402 36.732 20.5402 35.8647C25.6187 35.5189 29.5941 33.2662 32.4664 29.1065C32.5387 29.0583 32.6109 29.0583 32.6832 29.1065C33.382 29.5281 34.0806 29.9498 34.7793 30.3714C31.6735 35.0698 27.3127 37.7683 21.6966 38.4667Z" fill="#FAC1D9"/>
</svg>
