<svg width="30" height="30" viewBox="0 0 30 30" fill="none" xmlns="http://www.w3.org/2000/svg">
<circle cx="14.8591" cy="14.8591" r="14.8591" fill="white"/>
<path opacity="0.982" fill-rule="evenodd" clip-rule="evenodd" d="M10.9754 8.14062C11.0734 8.14062 11.1714 8.14062 11.2694 8.14062C11.3959 8.20047 11.4805 8.29846 11.5233 8.4346C11.5321 9.07599 11.5411 9.71738 11.55 10.3588C11.6683 10.6238 11.8598 10.6996 12.1246 10.5859C12.1836 10.5359 12.2326 10.478 12.2715 10.4122C12.3105 9.94194 12.3239 9.4698 12.3116 8.99581C12.6323 8.99581 12.953 8.99581 13.2737 8.99581C13.2693 8.81743 13.2737 8.63926 13.2871 8.46132C13.319 8.30951 13.4036 8.20261 13.541 8.14062C13.639 8.14062 13.7369 8.14062 13.8349 8.14062C13.9495 8.19733 14.0341 8.28641 14.0888 8.40787C14.0977 9.04036 14.1066 9.67284 14.1155 10.3053C14.2251 10.6358 14.4344 10.7205 14.7436 10.5592C14.778 10.5215 14.8092 10.4815 14.8371 10.4389C14.8761 9.95974 14.8895 9.4787 14.8772 8.99581C15.2068 8.99581 15.5364 8.99581 15.866 8.99581C15.8616 8.79963 15.866 8.60365 15.8794 8.40787C15.9341 8.28641 16.0187 8.19733 16.1333 8.14062C16.2313 8.14062 16.3292 8.14062 16.4272 8.14062C16.5646 8.20261 16.6492 8.30951 16.6811 8.46132C16.69 9.09381 16.6989 9.72629 16.7078 10.3588C16.7826 10.5633 16.9296 10.6568 17.1488 10.6394C17.274 10.6033 17.3675 10.5276 17.4294 10.4122C17.468 9.94158 17.4814 9.46944 17.4695 8.99581C17.7902 8.99581 18.1109 8.99581 18.4316 8.99581C18.4271 8.80853 18.4316 8.62146 18.4449 8.4346C18.4877 8.29846 18.5723 8.20047 18.6988 8.14062C18.7968 8.14062 18.8948 8.14062 18.9928 8.14062C19.1193 8.20047 19.2039 8.29846 19.2467 8.4346C19.2556 9.06708 19.2645 9.69956 19.2734 10.332C19.4175 10.6637 19.6358 10.7261 19.9282 10.5191C19.9661 10.4701 19.9973 10.4166 20.0217 10.3588C20.0351 9.90454 20.0395 9.45022 20.0351 8.99581C20.9665 8.91281 21.5633 9.31368 21.8256 10.1984C21.8256 10.6617 21.8256 11.1249 21.8256 11.5881C17.2646 11.5881 12.7036 11.5881 8.14258 11.5881C8.14258 11.1249 8.14258 10.6617 8.14258 10.1984C8.298 9.55752 8.69887 9.1611 9.34519 9.00918C9.79942 8.99582 10.2537 8.99136 10.7081 8.99581C10.7037 8.80853 10.7082 8.62146 10.7215 8.4346C10.7642 8.29846 10.8489 8.20047 10.9754 8.14062Z" fill="#FAC1D9"/>
<path opacity="0.989" fill-rule="evenodd" clip-rule="evenodd" d="M8.14258 12.3594C12.7036 12.3594 17.2646 12.3594 21.8256 12.3594C21.8256 15.112 21.8256 17.8647 21.8256 20.6173C21.6653 21.2587 21.2644 21.6596 20.623 21.8199C16.8637 21.8199 13.1045 21.8199 9.34519 21.8199C8.71573 21.6626 8.31486 21.2706 8.14258 20.644C8.14258 17.8825 8.14258 15.1209 8.14258 12.3594ZM10.4409 13.7223C11.0378 13.7179 11.6347 13.7223 12.2315 13.7357C12.391 13.7704 12.5023 13.8639 12.5655 14.0163C12.5833 14.6577 12.5833 15.2991 12.5655 15.9405C12.5023 16.0929 12.391 16.1864 12.2315 16.2211C11.6346 16.2389 11.0377 16.2389 10.4409 16.2211C10.2745 16.1935 10.1632 16.1 10.1068 15.9405C10.089 15.2991 10.089 14.6577 10.1068 14.0163C10.1685 13.859 10.2798 13.761 10.4409 13.7223ZM17.7367 13.7223C18.3337 13.7179 18.9305 13.7223 19.5273 13.7357C19.6947 13.7636 19.806 13.8571 19.8614 14.0163C19.8792 14.6577 19.8792 15.2991 19.8614 15.9405C19.806 16.0997 19.6947 16.1932 19.5273 16.2211C18.9304 16.2389 18.3336 16.2389 17.7367 16.2211C17.5772 16.1864 17.4659 16.0929 17.4027 15.9405C17.3849 15.2991 17.3849 14.6577 17.4027 14.0163C17.4705 13.8636 17.5818 13.7656 17.7367 13.7223ZM15.7858 13.9896C16.1516 13.9753 16.3075 14.1446 16.2535 14.4973C16.2357 14.533 16.2179 14.5686 16.2001 14.6042C15.768 15.0363 15.336 15.4683 14.9039 15.9004C14.7753 15.9777 14.6416 15.9866 14.5031 15.9271C14.25 15.7008 14.005 15.4647 13.7681 15.2189C13.6285 14.9625 13.6864 14.7621 13.9418 14.6176C14.0309 14.5998 14.12 14.5998 14.2091 14.6176C14.3812 14.7407 14.5416 14.8788 14.6901 15.0318C15.0485 14.6734 15.4138 14.3259 15.7858 13.9896ZM10.3875 17.1698C11.02 17.1654 11.6525 17.1698 12.2849 17.1832C12.4319 17.2233 12.5254 17.3168 12.5655 17.4638C12.5833 18.0963 12.5833 18.7287 12.5655 19.3612C12.5254 19.5082 12.4319 19.6018 12.2849 19.6418C11.6435 19.6597 11.0021 19.6597 10.3607 19.6418C10.2405 19.5929 10.1558 19.5082 10.1068 19.388C10.089 18.7377 10.089 18.0874 10.1068 17.4371C10.1631 17.305 10.2567 17.2159 10.3875 17.1698ZM14.022 17.1698C14.6635 17.1654 15.3048 17.1698 15.9462 17.1832C16.0986 17.2464 16.1921 17.3577 16.2268 17.5172C16.2446 18.1141 16.2446 18.7109 16.2268 19.3078C16.1992 19.4742 16.1057 19.5855 15.9462 19.6418C15.3048 19.6597 14.6634 19.6597 14.022 19.6418C13.8625 19.5855 13.769 19.4742 13.7414 19.3078C13.7236 18.7109 13.7236 18.1141 13.7414 17.5172C13.7814 17.3571 13.8749 17.2413 14.022 17.1698ZM17.6833 17.1698C18.3158 17.1654 18.9483 17.1698 19.5807 17.1832C19.7163 17.2208 19.8099 17.3054 19.8614 17.4371C19.8792 18.0874 19.8792 18.7377 19.8614 19.388C19.8099 19.5197 19.7163 19.6043 19.5807 19.6418C18.9482 19.6597 18.3158 19.6597 17.6833 19.6418C17.5363 19.6018 17.4428 19.5082 17.4027 19.3612C17.3849 18.7287 17.3849 18.0963 17.4027 17.4638C17.4477 17.3164 17.5412 17.2184 17.6833 17.1698Z" fill="#FAC1D9"/>
<path opacity="0.932" fill-rule="evenodd" clip-rule="evenodd" d="M10.8687 14.5C11.1804 14.5 11.4922 14.5 11.804 14.5C11.804 14.8207 11.804 15.1414 11.804 15.4621C11.4922 15.4621 11.1804 15.4621 10.8687 15.4621C10.8687 15.1414 10.8687 14.8207 10.8687 14.5Z" fill="#FAC1D9"/>
<path opacity="0.932" fill-rule="evenodd" clip-rule="evenodd" d="M18.1646 14.5C18.4763 14.5 18.7881 14.5 19.0999 14.5C19.0999 14.8207 19.0999 15.1414 19.0999 15.4621C18.7881 15.4621 18.4763 15.4621 18.1646 15.4621C18.1646 15.1414 18.1646 14.8207 18.1646 14.5Z" fill="#FAC1D9"/>
<path opacity="0.959" fill-rule="evenodd" clip-rule="evenodd" d="M10.8687 17.9453C11.1804 17.9453 11.4922 17.9453 11.804 17.9453C11.804 18.2571 11.804 18.5689 11.804 18.8807C11.4922 18.8807 11.1804 18.8807 10.8687 18.8807C10.8687 18.5689 10.8687 18.2571 10.8687 17.9453Z" fill="#FAC1D9"/>
<path opacity="0.932" fill-rule="evenodd" clip-rule="evenodd" d="M14.5029 17.9453C14.8236 17.9453 15.1443 17.9453 15.465 17.9453C15.465 18.2571 15.465 18.5689 15.465 18.8807C15.1443 18.8807 14.8236 18.8807 14.5029 18.8807C14.5029 18.5689 14.5029 18.2571 14.5029 17.9453Z" fill="#FAC1D9"/>
<path opacity="0.959" fill-rule="evenodd" clip-rule="evenodd" d="M18.1641 17.9453C18.4759 17.9453 18.7876 17.9453 19.0994 17.9453C19.0994 18.2571 19.0994 18.5689 19.0994 18.8807C18.7876 18.8807 18.4759 18.8807 18.1641 18.8807C18.1641 18.5689 18.1641 18.2571 18.1641 17.9453Z" fill="#FAC1D9"/>
</svg>
