<svg width="36" height="36" viewBox="0 0 36 36" fill="none" xmlns="http://www.w3.org/2000/svg">
<circle cx="17.8301" cy="17.83" r="17.83" transform="rotate(90 17.8301 17.83)" fill="#FAC1D9"/>
<path fill-rule="evenodd" clip-rule="evenodd" d="M14.165 13.4141C14.165 12.5891 14.84 11.9141 15.665 11.9141H23.915C24.3129 11.9141 24.6944 12.0721 24.9757 12.3534C25.257 12.6347 25.415 13.0162 25.415 13.4141V18.6641C25.415 19.0619 25.257 19.4434 24.9757 19.7247C24.6944 20.006 24.3129 20.1641 23.915 20.1641H22.415V17.1641C22.415 16.5673 22.178 15.995 21.756 15.5731C21.3341 15.1511 20.7618 14.9141 20.165 14.9141H14.165V13.4141Z" fill="#333333"/>
<path fill-rule="evenodd" clip-rule="evenodd" d="M10.415 17.1641C10.415 16.3391 11.09 15.6641 11.915 15.6641H20.165C20.5629 15.6641 20.9444 15.8221 21.2257 16.1034C21.507 16.3847 21.665 16.7662 21.665 17.1641V22.4141C21.665 22.8119 21.507 23.1934 21.2257 23.4747C20.9444 23.756 20.5629 23.9141 20.165 23.9141H11.915C11.5172 23.9141 11.1357 23.756 10.8544 23.4747C10.5731 23.1934 10.415 22.8119 10.415 22.4141V17.1641ZM16.04 17.9141C15.5428 17.9141 15.0658 18.1116 14.7142 18.4632C14.3626 18.8149 14.165 19.2918 14.165 19.7891C14.165 20.2863 14.3626 20.7633 14.7142 21.1149C15.0658 21.4665 15.5428 21.6641 16.04 21.6641C16.5373 21.6641 17.0142 21.4665 17.3659 21.1149C17.7175 20.7633 17.915 20.2863 17.915 19.7891C17.915 19.2918 17.7175 18.8149 17.3659 18.4632C17.0142 18.1116 16.5373 17.9141 16.04 17.9141Z" fill="#333333"/>
<path d="M16.79 19.7891C16.79 19.988 16.711 20.1787 16.5704 20.3194C16.4297 20.46 16.239 20.5391 16.04 20.5391C15.8411 20.5391 15.6504 20.46 15.5097 20.3194C15.3691 20.1787 15.29 19.988 15.29 19.7891C15.29 19.5902 15.3691 19.3994 15.5097 19.2587C15.6504 19.1181 15.8411 19.0391 16.04 19.0391C16.239 19.0391 16.4297 19.1181 16.5704 19.2587C16.711 19.3994 16.79 19.5902 16.79 19.7891Z" fill="#333333"/>
</svg>
