<svg width="36" height="36" viewBox="0 0 36 36" fill="none" xmlns="http://www.w3.org/2000/svg">
<circle cx="17.8301" cy="17.83" r="17.83" transform="rotate(90 17.8301 17.83)" fill="#FAC1D9"/>
<path d="M14.165 20.1641H15.665C15.665 20.9741 16.6925 21.6641 17.915 21.6641C19.1375 21.6641 20.165 20.9741 20.165 20.1641C20.165 19.3391 19.385 19.0391 17.735 18.6416C16.145 18.2441 14.165 17.7491 14.165 15.6641C14.165 14.3216 15.2675 13.1816 16.79 12.7991V11.1641H19.04V12.7991C20.5625 13.1816 21.665 14.3216 21.665 15.6641H20.165C20.165 14.8541 19.1375 14.1641 17.915 14.1641C16.6925 14.1641 15.665 14.8541 15.665 15.6641C15.665 16.4891 16.445 16.7891 18.095 17.1866C19.685 17.5841 21.665 18.0791 21.665 20.1641C21.665 21.5066 20.5625 22.6466 19.04 23.0291V24.6641H16.79V23.0291C15.2675 22.6466 14.165 21.5066 14.165 20.1641Z" fill="#333333"/>
</svg>
