<svg width="40" height="40" viewBox="0 0 40 40" fill="none" xmlns="http://www.w3.org/2000/svg">
<path opacity="0.969" fill-rule="evenodd" clip-rule="evenodd" d="M19.4477 2.42387C21.9351 2.27545 24.2827 2.77675 26.4905 3.9278C26.9606 4.17157 27.1196 4.55061 26.9674 5.06492C26.8714 5.3774 26.7614 5.68308 26.6372 5.98195C26.0613 5.98101 25.4744 6.00547 24.8765 6.05531C24.4523 6.06322 24.2689 6.27108 24.3263 6.67889C24.3874 6.83784 24.4975 6.94789 24.6564 7.00902C25.169 6.95966 25.6825 6.97189 26.1971 7.0457C25.9481 7.61711 25.6424 8.1551 25.28 8.65968C24.7026 8.29039 24.079 8.08252 23.4093 8.0361C23.1158 8.3051 23.1158 8.57406 23.4093 8.84308C23.8784 8.99201 24.3185 9.19992 24.7298 9.46667C23.037 11.4363 21.0318 11.8398 18.7141 10.6771C18.7385 10.6038 18.763 10.5304 18.7874 10.4571C18.5445 8.41718 18.3122 6.37526 18.0905 4.33129C17.9957 3.77497 17.7634 3.28588 17.3936 2.86404C18.0769 2.66904 18.7616 2.52232 19.4477 2.42387ZM20.8416 3.96448C21.3025 3.97346 21.6082 4.19355 21.7586 4.62474C21.7451 5.2739 21.415 5.55513 20.7682 5.46841C20.2697 5.21738 20.1352 4.83834 20.3647 4.33129C20.5089 4.18088 20.6679 4.0586 20.8416 3.96448Z" fill="#FAC1D9"/>
<path opacity="0.968" fill-rule="evenodd" clip-rule="evenodd" d="M14.4582 3.08307C15.0245 3.06388 15.587 3.10056 16.1455 3.19311C16.6864 3.39146 17.0165 3.7705 17.1359 4.33023C17.3575 6.3736 17.5898 8.41552 17.8329 10.456C17.647 11.5092 17.0111 12.0594 15.9254 12.1067C15.9539 11.6906 15.8683 11.2994 15.6687 10.9329C14.2286 8.84716 12.7981 6.75632 11.377 4.66036C12.2326 3.80458 13.2597 3.27881 14.4582 3.08307Z" fill="#FAC1D9"/>
<path opacity="0.979" fill-rule="evenodd" clip-rule="evenodd" d="M8.44262 4.4082C9.31212 4.29437 10.0335 4.56337 10.6068 5.21518C12.0678 7.33 13.5106 9.45752 14.9352 11.5977C15.0329 12.0955 14.9595 12.5601 14.7151 12.9916C14.0649 13.6663 13.3924 14.3144 12.6976 14.9357C12.1983 15.0978 11.7092 15.0734 11.2304 14.8624C9.17625 13.444 7.1221 12.0256 5.06795 10.6073C4.39226 9.99864 4.15995 9.25284 4.37101 8.36977C5.06881 6.36358 6.42601 5.04305 8.44262 4.4082Z" fill="#FAC1D9"/>
<path opacity="0.905" fill-rule="evenodd" clip-rule="evenodd" d="M27.5904 6.09375C29.7388 6.66718 31.4506 7.8532 32.7258 9.65183C32.5864 10.1739 32.2684 10.3206 31.7721 10.092C30.5392 8.65073 29.023 7.63589 27.2236 7.04746C27.3608 6.73357 27.483 6.41566 27.5904 6.09375Z" fill="#FAC1D9"/>
<path opacity="0.899" fill-rule="evenodd" clip-rule="evenodd" d="M26.0499 9.17188C27.5822 10.3039 28.6216 11.7955 29.1678 13.647C29.2154 14.0401 29.0442 14.2846 28.6543 14.3806C28.4425 14.351 28.2713 14.2533 28.1407 14.0872C27.6513 12.4721 26.7588 11.1271 25.463 10.0522C25.6912 9.77609 25.8868 9.48264 26.0499 9.17188Z" fill="#FAC1D9"/>
<path opacity="0.967" fill-rule="evenodd" clip-rule="evenodd" d="M4.55448 11.4531C6.66055 12.8124 8.73915 14.2185 10.7903 15.6715C11.2188 15.9314 11.6834 16.0414 12.1842 16.0016C12.0923 16.9982 11.5543 17.5606 10.5702 17.6889C8.68721 17.4811 6.80424 17.2732 4.92129 17.0654C4.16393 17.0884 3.63816 16.7583 3.344 16.075C3.0029 14.3334 3.40639 12.7928 4.55448 11.4531Z" fill="#FAC1D9"/>
<path opacity="0.955" fill-rule="evenodd" clip-rule="evenodd" d="M21.1349 14.1658C23.3468 13.9637 25.4253 14.3917 27.3707 15.4497C27.7174 15.647 28.0353 15.8793 28.3244 16.1466C27.9334 16.3788 27.6277 16.6967 27.4074 17.1003C26.5695 18.6048 25.7503 20.1209 24.9497 21.6488C23.986 21.7869 23.1056 21.579 22.3087 21.0252C22.5165 20.8174 22.7244 20.6095 22.9323 20.4016C23.0179 19.9003 22.81 19.6924 22.3087 19.778C22.0545 19.9587 21.8222 20.1666 21.6117 20.4016C21.3253 20.0244 21.1174 19.6086 20.9881 19.1545C21.4324 19.0832 21.8604 18.9609 22.272 18.7876C22.4823 18.3801 22.3723 18.1112 21.9419 17.9807C21.5443 18.0556 21.1531 18.1534 20.7681 18.2741C20.5938 17.8284 20.5204 17.3638 20.548 16.8802C20.9413 16.9266 21.3204 17.0244 21.6851 17.1737C22.1888 16.9804 22.2744 16.6748 21.9419 16.2566C21.4673 16.0768 20.9782 15.9668 20.4746 15.9265C20.4918 15.4607 20.5285 14.9961 20.5847 14.5326C20.725 14.3287 20.9084 14.2064 21.1349 14.1658ZM24.2895 15.5597C25.1409 15.6154 25.3977 16.0311 25.0598 16.8069C24.8149 17.0136 24.5337 17.0747 24.2161 16.9903C23.8108 16.7761 23.6763 16.446 23.8126 15.9999C23.9222 15.7934 24.0811 15.6467 24.2895 15.5597Z" fill="#FAC1D9"/>
<path opacity="0.912" fill-rule="evenodd" clip-rule="evenodd" d="M19.0074 15.7031C19.1786 15.7031 19.3498 15.7031 19.521 15.7031C19.521 16.0699 19.521 16.4367 19.521 16.8036C18.3849 16.8602 17.3334 17.1903 16.3664 17.794C16.024 18.014 15.6817 18.2341 15.3393 18.4542C14.8135 18.5153 14.5812 18.2831 14.6424 17.7573C14.6999 17.6262 14.7855 17.5162 14.8991 17.4271C16.1282 16.5066 17.4977 15.9319 19.0074 15.7031Z" fill="#FAC1D9"/>
<path opacity="0.958" fill-rule="evenodd" clip-rule="evenodd" d="M29.1318 16.875C30.7082 17.1188 31.833 17.9625 32.5065 19.406C30.7656 20.5842 29.0049 21.7336 27.2244 22.854C26.9725 23.0772 26.7647 23.334 26.6008 23.6243C25.9082 23.218 25.6637 22.6311 25.8672 21.8636C26.6986 20.3475 27.5301 18.8314 28.3615 17.3152C28.5867 17.099 28.8434 16.9523 29.1318 16.875Z" fill="#FAC1D9"/>
<path opacity="0.961" fill-rule="evenodd" clip-rule="evenodd" d="M4.33518 17.9766C6.41494 18.1804 8.49355 18.4005 10.571 18.6368C10.8463 18.623 11.1153 18.5741 11.378 18.4901C11.4471 18.498 11.5082 18.5225 11.5614 18.5635C11.8278 19.4855 11.5221 20.1091 10.6444 20.4342C9.14938 20.8385 7.6577 21.2543 6.16925 21.6814C5.6777 21.7979 5.24976 21.6879 4.8854 21.3512C4.23351 20.3011 4.0501 19.1762 4.33518 17.9766Z" fill="#FAC1D9"/>
<path opacity="0.903" fill-rule="evenodd" clip-rule="evenodd" d="M19.6675 18.5626C19.7406 18.5604 19.7896 18.5971 19.8142 18.6726C19.9196 18.9764 20.0173 19.2821 20.1077 19.5897C18.9405 20.2799 18.0358 21.2214 17.3932 22.4141C16.757 22.6093 16.4758 22.377 16.5496 21.7172C17.2958 20.3675 18.3351 19.3159 19.6675 18.5626Z" fill="#FAC1D9"/>
<path opacity="0.976" fill-rule="evenodd" clip-rule="evenodd" d="M33.3858 20.0356C33.9054 19.9727 34.3945 20.0583 34.8531 20.2924C36.2571 21.4714 36.8563 22.9754 36.6505 24.8042C36.4671 25.3788 36.088 25.7579 35.5134 25.9413C33.4134 26.4077 31.3103 26.8601 29.2042 27.2985C28.9018 27.2659 28.6328 27.1559 28.3972 26.9684C27.9693 26.1741 27.627 25.3427 27.3701 24.474C27.4166 24.227 27.5022 23.9948 27.6269 23.7771C29.5213 22.48 31.441 21.2328 33.3858 20.0356Z" fill="#FAC1D9"/>
<path opacity="0.905" fill-rule="evenodd" clip-rule="evenodd" d="M20.9879 21.2031C21.0922 21.2185 21.19 21.2551 21.2814 21.3132C21.4967 21.5159 21.6923 21.7237 21.8683 21.9367C21.6052 22.7107 21.5808 23.4932 21.7949 24.2843C21.7463 24.6264 21.5507 24.822 21.208 24.8712C20.7588 24.7242 20.5509 24.4063 20.5844 23.9175C20.44 22.9657 20.5745 22.0609 20.9879 21.2031Z" fill="#FAC1D9"/>
<path opacity="0.957" fill-rule="evenodd" clip-rule="evenodd" d="M10.7172 21.3519C10.9599 21.3134 11.1188 21.4111 11.194 21.6454C11.5177 22.3172 11.86 22.9774 12.2211 23.6262C12.4962 24.507 12.1905 25.0573 11.3041 25.2768C9.91248 25.5141 8.75093 25.1106 7.81937 24.0664C7.45429 23.603 7.14861 23.1016 6.90234 22.5624C6.98905 22.4351 7.11132 22.3618 7.26916 22.3423C8.43321 22.0313 9.58257 21.7012 10.7172 21.3519Z" fill="#FAC1D9"/>
<path opacity="0.958" fill-rule="evenodd" clip-rule="evenodd" d="M12.991 22.9697C13.858 22.9031 14.6894 23.0376 15.4853 23.3732C15.703 23.5272 15.8375 23.7351 15.8888 23.9967C15.8879 24.3908 15.8634 24.7822 15.8155 25.1705C15.8429 25.2377 15.8796 25.2989 15.9255 25.354C16.8175 25.7799 17.0743 26.4524 16.6958 27.3714C16.4371 27.7872 16.0582 28.0073 15.5587 28.0317C15.2691 27.9417 14.9756 27.9051 14.6784 27.9216C14.4591 28.1877 14.239 28.4567 14.0181 28.7286C13.5908 28.9431 13.1506 28.9675 12.6976 28.802C11.6149 28.2206 10.759 27.4014 10.1299 26.3443C10.7408 26.3319 11.3522 26.2463 11.9639 26.0876C13.2484 25.365 13.5908 24.3258 12.991 22.9697Z" fill="#FAC1D9"/>
<path opacity="0.96" fill-rule="evenodd" clip-rule="evenodd" d="M35.2933 26.9282C35.4017 26.909 35.4995 26.9334 35.5867 27.0016C35.9717 28.2573 35.8372 29.4556 35.1832 30.5963C34.6742 31.148 34.075 31.258 33.3859 30.9265C31.9719 30.4959 30.5535 30.0802 29.1308 29.6793C28.3813 29.3242 28.1856 28.7984 28.5439 28.102C28.7752 28.1556 29.0075 28.2045 29.2409 28.2487C31.275 27.8397 33.2925 27.3995 35.2933 26.9282Z" fill="#FAC1D9"/>
<path opacity="0.944" fill-rule="evenodd" clip-rule="evenodd" d="M28.0306 30.1562C28.4059 30.4165 28.8217 30.5999 29.2778 30.7065C30.7709 31.1106 32.2381 31.563 33.6795 32.0637C33.4804 32.8898 33.0647 33.5868 32.4324 34.1545C32.0166 34.399 31.601 34.399 31.1852 34.1545C30.0903 33.2952 29.0021 32.4271 27.9206 31.5501C27.6703 31.0642 27.7069 30.5996 28.0306 30.1562Z" fill="#FAC1D9"/>
<path opacity="0.942" fill-rule="evenodd" clip-rule="evenodd" d="M27.5178 32.5C28.4447 33.1601 29.3495 33.8571 30.2322 34.5908C28.9942 35.8692 27.6003 36.0893 26.0506 35.2511C25.6116 34.8893 25.526 34.4613 25.7938 33.9672C26.3825 33.4881 26.9572 32.999 27.5178 32.5Z" fill="#FAC1D9"/>
<path opacity="0.948" fill-rule="evenodd" clip-rule="evenodd" d="M23.556 32.5781C24.1565 32.6274 24.7312 32.7741 25.28 33.0183C24.2404 34.643 24.6439 35.8046 26.4905 36.503C25.5875 37.2198 24.5604 37.5376 23.4092 37.4567C23.1831 37.3991 23.0242 37.2646 22.9324 37.0532C22.8667 36.7811 22.7934 36.512 22.7123 36.2462C22.3503 36.1391 21.9957 36.0047 21.6485 35.8428C21.304 35.393 21.2674 34.9161 21.5385 34.4122C21.8357 34.1281 22.1903 33.9691 22.6023 33.9353C22.6634 33.8742 22.7246 33.813 22.7857 33.7519C22.7739 33.1595 23.0307 32.7682 23.556 32.5781Z" fill="#FAC1D9"/>
</svg>
